<svg id="Layer_1" data-name="Layer 1" xmlns="http://www.w3.org/2000/svg" viewBox="0 0 672.57 604.71"><defs><style>.cls-1{fill:#f5f5f5;}.cls-2{fill:#e1e1e1;}.cls-3{fill:#00dfbf;}.cls-4{fill:#f48a0b;}.cls-15,.cls-5{fill:#fff;}.cls-13,.cls-6{fill:#f7991c;}.cls-11,.cls-7{fill:#2b454e;}.cls-8{fill:#1a2e35;}.cls-9{fill:#375a64;}.cls-10{fill:#fafafa;}.cls-11{stroke:#2b454e;stroke-miterlimit:10;}.cls-12{fill:#ffe1c0;}.cls-13{opacity:0.25;}.cls-14{opacity:0.1;}.cls-15{opacity:0.4;}.cls-16{fill:#ffc398;}.cls-17{fill:#445c66;}.cls-18{opacity:0.3;}.cls-19{fill:#ececec;}.cls-20{fill:#f4ae7f;}.cls-21{opacity:0.15;}</style></defs><title>RegisPage</title><path id="Floor" class="cls-1" d="M247.55,796.76c131.33,50.94,344.26,50.94,475.58,0s131.33-133.51,0-184.44-344.25-50.94-475.58,0S116.22,745.83,247.55,796.76Z" transform="translate(-149.06 -230.25)"/><ellipse id="Shadow" class="cls-2" cx="491.28" cy="454.94" rx="62.4" ry="36.03"/><g id="Plants"><g id="_Group_" data-name="&lt;Group&gt;"><g id="_Group_2" data-name="&lt;Group&gt;"><g id="_Group_3" data-name="&lt;Group&gt;"><path id="_Path_" data-name="&lt;Path&gt;" class="cls-3" d="M260.28,666.38c-.93-10.58-10.5-31.84-22.69-44.63s-30.34-21.33-42.24-16.06c-11.09,4.91-8.54,19.79,6.19,28.51s36.67,19.39,44.27,36l14.63,19.95Z" transform="translate(-149.06 -230.25)"/><path id="_Path_2" data-name="&lt;Path&gt;" class="cls-4" d="M260.28,666.38c-.93-10.58-10.5-31.84-22.69-44.63s-30.34-21.33-42.24-16.06c-11.09,4.91-8.54,19.79,6.19,28.51s36.67,19.39,44.27,36l14.63,19.95Z" transform="translate(-149.06 -230.25)"/></g><g id="_Group_4" data-name="&lt;Group&gt;"><path id="_Path_3" data-name="&lt;Path&gt;" class="cls-5" d="M262.33,680.8a.78.78,0,0,1-.76-.56c-10.24-35.52-42-62.34-60.11-67.3a.78.78,0,0,1-.55-1,.77.77,0,0,1,1-.54c18.41,5,50.79,32.31,61.2,68.37a.78.78,0,0,1-.53,1Z" transform="translate(-149.06 -230.25)"/></g></g><g id="_Group_5" data-name="&lt;Group&gt;"><g id="_Group_6" data-name="&lt;Group&gt;"><path id="_Path_4" data-name="&lt;Path&gt;" class="cls-6" d="M259,704.41c-2.22-5.8-10.35-15-22.82-22.08-13.79-7.83-30.61-10.52-35-17.18-5.3-8,1.09-16.53,14.59-16s38.59,16.67,44.74,43.79Z" transform="translate(-149.06 -230.25)"/></g><g id="_Group_7" data-name="&lt;Group&gt;"><path id="_Path_5" data-name="&lt;Path&gt;" class="cls-5" d="M261,697.94a.8.8,0,0,1-.72-.46c-13.78-30-38.36-38.79-49.42-39.26a.78.78,0,0,1-.75-.81.77.77,0,0,1,.81-.74c12.24.51,36.7,9.55,50.78,40.17a.78.78,0,0,1-.38,1A1,1,0,0,1,261,697.94Z" transform="translate(-149.06 -230.25)"/></g></g></g></g><g id="Plants-2" data-name="Plants"><g id="_Group_8" data-name="&lt;Group&gt;"><g id="_Group_9" data-name="&lt;Group&gt;"><path id="_Path_6" data-name="&lt;Path&gt;" class="cls-3" d="M674.69,652.66c-.23-8.52,2.14-22.81,10.53-37.07,9-15.26,20.84-25.48,30.8-22.38,9.28,2.9,7.24,15.49-6.71,29.21-9.79,9.63-19.7,21.84-24.23,35.79l-7.85,18Z" transform="translate(-149.06 -230.25)"/></g><g id="_Group_10" data-name="&lt;Group&gt;"><path id="_Path_7" data-name="&lt;Path&gt;" class="cls-3" d="M674.69,652.66c-.23-8.52,2.14-22.81,10.53-37.07,9-15.26,20.84-25.48,30.8-22.38,9.28,2.9,7.24,15.49-6.71,29.21-9.79,9.63-19.7,21.84-24.23,35.79l-7.85,18Z" transform="translate(-149.06 -230.25)"/></g><g id="_Group_11" data-name="&lt;Group&gt;"><path id="_Path_8" data-name="&lt;Path&gt;" class="cls-4" d="M674.69,652.66c-.23-8.52,2.14-22.81,10.53-37.07,9-15.26,20.84-25.48,30.8-22.38,9.28,2.9,7.24,15.49-6.71,29.21-9.79,9.63-19.7,21.84-24.23,35.79l-7.85,18Z" transform="translate(-149.06 -230.25)"/></g><g id="_Group_12" data-name="&lt;Group&gt;"><path id="_Path_9" data-name="&lt;Path&gt;" class="cls-5" d="M676.24,659a.59.59,0,0,0,.52-.45c6-24.33,21.13-49.94,35.24-59.56a.59.59,0,0,0,.16-.83.6.6,0,0,0-.84-.16c-14.33,9.76-29.69,35.67-35.73,60.26a.61.61,0,0,0,.44.73A.5.5,0,0,0,676.24,659Z" transform="translate(-149.06 -230.25)"/></g></g><g id="_Group_13" data-name="&lt;Group&gt;"><path id="_Path_10" data-name="&lt;Path&gt;" class="cls-6" d="M674.6,680.24a35.83,35.83,0,0,0,16.58,8.3c10.62,2.34,15.65-2.5,15.65-2.5s-3.62-10.31-9.54-13.49c0,0,10.2,2.72,18.15,8.74,0,0,6.54.49,9.74-9.34,0,0-3.52-6.25-16.34-10.27,0,0,8-1.52,19.27,2.07.84.39,5.25-12.31,6.71-18.2s-.94-6-5.51-7.49-20.34-3.24-23.4-.86-5.06,11-5.06,11-2.49-5.11-1.56-9.48a16.64,16.64,0,0,0-9.9-.35c-5.32,1.5-5.14,4.07-5.37,7.86a40.38,40.38,0,0,0,.89,11.4s-3.42-3.33-2.86-14.83c0,0-7.41,5.61-10.55,10.63S668.26,672.1,674.6,680.24Z" transform="translate(-149.06 -230.25)"/><g id="_Group_14" data-name="&lt;Group&gt;"><path id="_Path_11" data-name="&lt;Path&gt;" class="cls-5" d="M674.57,680.85a.61.61,0,0,0,.56-.31c9.72-17.45,43.12-36.42,54.77-38a.6.6,0,0,0,.52-.68.61.61,0,0,0-.68-.52C717.9,643,684,662.22,674.08,680a.6.6,0,0,0,.23.82A.61.61,0,0,0,674.57,680.85Z" transform="translate(-149.06 -230.25)"/></g></g></g><g id="Device"><path id="_Path_12" data-name="&lt;Path&gt;" class="cls-7" d="M268.52,716.11l-4.15-2.4a13.52,13.52,0,0,1-6.11-10.58V339.2a13.51,13.51,0,0,1,6.11-10.58l167.85-96.91a13.54,13.54,0,0,1,12.21,0l4.16,2.4a13.52,13.52,0,0,1,6.11,10.58V608.62a13.51,13.51,0,0,1-6.11,10.58L280.74,716.11A13.56,13.56,0,0,1,268.52,716.11Z" transform="translate(-149.06 -230.25)"/><path id="_Path_13" data-name="&lt;Path&gt;" class="cls-8" d="M282.82,346.32l-22.77-13.14a12.52,12.52,0,0,0-1.79,6V703.13a13.52,13.52,0,0,0,6.11,10.58l4.15,2.4a13.56,13.56,0,0,0,12.22,0l2.08-1.2Z" transform="translate(-149.06 -230.25)"/><path id="_Path_14" data-name="&lt;Path&gt;" class="cls-9" d="M274.63,348.65V712.58c0,3.89,2.74,5.47,6.11,3.53L448.59,619.2a13.51,13.51,0,0,0,6.11-10.58V244.69c0-3.89-2.74-5.47-6.11-3.53L280.74,338.07A13.52,13.52,0,0,0,274.63,348.65Z" transform="translate(-149.06 -230.25)"/><path id="_Path_15" data-name="&lt;Path&gt;" class="cls-10" d="M288.05,371.65l152.63-88.11c2.89-1.67,5.23-.31,5.23,3V576.9a11.57,11.57,0,0,1-5.23,9.07L288.05,674.08c-2.89,1.67-5.23.32-5.23-3V380.72A11.57,11.57,0,0,1,288.05,371.65Z" transform="translate(-149.06 -230.25)"/><path id="_Path_16" data-name="&lt;Path&gt;" class="cls-8" d="M364.66,299.07c2.26-1.31,4.1-.25,4.1,2.36a9.06,9.06,0,0,1-4.1,7.09c-2.26,1.3-4.09.25-4.09-2.36A9,9,0,0,1,364.66,299.07Z" transform="translate(-149.06 -230.25)"/><g id="_Group_15" data-name="&lt;Group&gt;"><path id="_Path_17" data-name="&lt;Path&gt;" class="cls-8" d="M352.85,319.51c8.31-4.6,23.14-13.42,31.34-18.25,1.39-.81,2.52-.25,2.52,1.26a5.43,5.43,0,0,1-2.53,4.21l-31.4,18.13c-1.4.81-2.53.24-2.53-1.28A5.19,5.19,0,0,1,352.85,319.51Z" transform="translate(-149.06 -230.25)"/><path id="_Path_18" data-name="&lt;Path&gt;" class="cls-8" d="M344.91,324.1c1.27-.74,2.3-.14,2.3,1.32a5.07,5.07,0,0,1-2.3,4c-1.27.73-2.29.14-2.29-1.33A5.05,5.05,0,0,1,344.91,324.1Z" transform="translate(-149.06 -230.25)"/></g><path id="_Path_19" data-name="&lt;Path&gt;" class="cls-8" d="M364.66,639.3c4.52-2.61,8.19-.49,8.19,4.73s-3.67,11.56-8.19,14.17-8.18.5-8.18-4.72S360.14,641.91,364.66,639.3Z" transform="translate(-149.06 -230.25)"/><g id="_Group_16" data-name="&lt;Group&gt;"><path id="_Path_20" data-name="&lt;Path&gt;" class="cls-5" d="M445.87,285.38c0-3.23-2.23-4.54-5-2.93l-18.32,10.82L287.82,372.78a11.27,11.27,0,0,0-5,8.79V672.14c0,3.24,2.22,4.55,5,2.93l134.81-79.54,18.27-10.78a11.28,11.28,0,0,0,5-8.79Z" transform="translate(-149.06 -230.25)"/><path class="cls-11" d="M285.61,676.75a3.47,3.47,0,0,1-1.77-.47,4.53,4.53,0,0,1-1.94-4.14V381.57a12.18,12.18,0,0,1,5.45-9.64L422.1,292.42l1,1.69L288.3,373.63a10.35,10.35,0,0,0-4.49,7.94V672.14a2.71,2.71,0,0,0,1,2.44,2.6,2.6,0,0,0,2.56-.35l134.8-79.54,1,1.69L288.3,675.92A5.36,5.36,0,0,1,285.61,676.75Z" transform="translate(-149.06 -230.25)"/><path class="cls-11" d="M423.11,596.38l-1-1.69,18.28-10.79a10.34,10.34,0,0,0,4.48-7.94V285.38a2.71,2.71,0,0,0-1-2.43,2.6,2.6,0,0,0-2.56.35l-18.32,10.81-1-1.69,18.32-10.81a4.34,4.34,0,0,1,4.47-.36,4.52,4.52,0,0,1,1.93,4.13V576a12.18,12.18,0,0,1-5.44,9.63Z" transform="translate(-149.06 -230.25)"/></g><path id="_Path_21" data-name="&lt;Path&gt;" class="cls-6" d="M364.36,351.36c17.15-9.9,31.05-1.88,31.05,17.92s-13.9,43.88-31.05,53.78-31.05,1.88-31.05-17.92S347.21,361.26,364.36,351.36Z" transform="translate(-149.06 -230.25)"/><path id="_Path_22" data-name="&lt;Path&gt;" class="cls-12" d="M364.36,366.94c5.57-3.21,10.08-.61,10.08,5.82S369.93,387,364.36,390.2s-10.07.61-10.07-5.81S358.8,370.15,364.36,366.94Z" transform="translate(-149.06 -230.25)"/><path id="_Path_23" data-name="&lt;Path&gt;" class="cls-12" d="M384,401.19c0-10.55-7.41-14.83-16.55-9.55l-5.72,3.3c-9.14,5.27-16.55,18.11-16.55,28.66v2.84c5.29,1.76,11.94.81,19.18-3.38,7.45-4.3,14.29-11.28,19.64-19.42Z" transform="translate(-149.06 -230.25)"/><path id="_Path_24" data-name="&lt;Path&gt;" class="cls-6" d="M304.29,466.73l39.95-23.07c1.83-1.05,3.31-.2,3.31,1.91v1.32a7.3,7.3,0,0,1-3.31,5.73l-39.95,23.07c-1.83,1.06-3.31.2-3.31-1.91v-1.32A7.3,7.3,0,0,1,304.29,466.73Z" transform="translate(-149.06 -230.25)"/><path id="_Path_25" data-name="&lt;Path&gt;" class="cls-13" d="M302.63,494.57l120.89-69.79c.91-.53,1.65-.1,1.65,1v14.1a3.67,3.67,0,0,1-1.65,2.87L302.63,512.5c-.91.53-1.65.1-1.65-.95V497.44A3.68,3.68,0,0,1,302.63,494.57Z" transform="translate(-149.06 -230.25)"/><path id="_Path_26" data-name="&lt;Path&gt;" class="cls-6" d="M304.29,529.47l39.95-23.07c1.83-1,3.31-.2,3.31,1.91v1.32a7.33,7.33,0,0,1-3.31,5.74l-39.95,23.06c-1.83,1.06-3.31.2-3.31-1.91V535.2A7.31,7.31,0,0,1,304.29,529.47Z" transform="translate(-149.06 -230.25)"/><path id="_Path_27" data-name="&lt;Path&gt;" class="cls-13" d="M302.63,557.32l120.89-69.8c.91-.53,1.65-.1,1.65,1v14.1a3.67,3.67,0,0,1-1.65,2.87L302.63,575.24c-.91.53-1.65.1-1.65-1V560.18A3.65,3.65,0,0,1,302.63,557.32Z" transform="translate(-149.06 -230.25)"/><path id="_Path_28" data-name="&lt;Path&gt;" class="cls-6" d="M350.86,565.32l47.72-27.54c1.83-1.06,3.31-.2,3.31,1.91v14.76a7.3,7.3,0,0,1-3.31,5.73l-47.72,27.55c-1.83,1.06-3.31.2-3.31-1.91V571.06A7.33,7.33,0,0,1,350.86,565.32Z" transform="translate(-149.06 -230.25)"/></g><g id="_Group_17" data-name="&lt;Group&gt;"><g id="_Group_18" data-name="&lt;Group&gt;"><path id="_Path_29" data-name="&lt;Path&gt;" class="cls-6" d="M503.85,537.36l-18.41-10.63h0l-.19-.11,0,0c-9.15-5.16-21.7-4.4-35.6,3.63-13,7.49-24.86,20-33.81,34.47-10.33,16.67-16.84,36-16.84,53.26,0,16.14,5.65,27.46,14.78,32.76v0l.06,0,18.69,10.67c9.23,5.89,22.26,5.37,36.71-3,28-16.15,50.66-55.43,50.66-87.74C519.84,553.94,513.69,542.34,503.85,537.36Z" transform="translate(-149.06 -230.25)"/><g id="_Group_19" data-name="&lt;Group&gt;"><path id="_Path_30" data-name="&lt;Path&gt;" class="cls-14" d="M432.1,661.28,413.78,650.8h-.06v0c-9.14-5.3-14.78-16.63-14.78-32.76,0-17.3,6.5-36.58,16.84-53.25L435.33,576C425,592.7,418.52,612,418.52,629.25,418.52,644.67,423.68,655.7,432.1,661.28Z" transform="translate(-149.06 -230.25)"/><path id="_Path_31" data-name="&lt;Path&gt;" class="cls-15" d="M503.47,537.15c-9-4.38-21.06-3.27-34.29,4.35-13,7.53-24.88,20-33.85,34.54l-19.55-11.28c9-14.48,20.82-27,33.81-34.48,13.9-8,26.45-8.79,35.61-3.63l0,0,.19.12h0Z" transform="translate(-149.06 -230.25)"/></g></g></g><g id="_Group_20" data-name="&lt;Group&gt;"><polygon id="_Path_32" data-name="&lt;Path&gt;" class="cls-5" points="346.51 327.48 339.49 323.43 312 388.2 316.69 390.9 346.51 327.48"/><polygon id="_Path_33" data-name="&lt;Path&gt;" class="cls-5" points="306.62 373.74 299.61 369.69 292.07 385.64 299.09 389.69 306.62 373.74"/><g id="_Group_21" data-name="&lt;Group&gt;"><polygon id="_Path_34" data-name="&lt;Path&gt;" class="cls-1" points="318.5 409.9 299.09 389.69 306.62 373.74 316.69 390.9 346.51 327.48 357.56 338.26 318.5 409.9"/></g><polygon id="_Path_35" data-name="&lt;Path&gt;" class="cls-2" points="292.07 385.64 299.09 389.69 318.5 409.9 311.49 405.89 292.07 385.64"/></g><g id="_Group_22" data-name="&lt;Group&gt;"><path id="_Path_36" data-name="&lt;Path&gt;" class="cls-8" d="M646.89,378.32h0a30,30,0,0,0,30-30v-1.77a25.4,25.4,0,0,0-25.41-25.4h-9.14a25.4,25.4,0,0,0-25.4,25.4v1.77A30,30,0,0,0,646.89,378.32Z" transform="translate(-149.06 -230.25)"/><g id="_Group_23" data-name="&lt;Group&gt;"><path id="_Path_37" data-name="&lt;Path&gt;" class="cls-8" d="M616,674.75a79.11,79.11,0,0,1-11.44,10,4.92,4.92,0,0,0-1.59,1.65c-.54,1.12-1.37,3.89,3.74,5.68a19,19,0,0,0,15.78-1.52c4.2-2.62,4.39-8.09,8.35-11.21,2.94-2.32,6.61-2.91,9-5.93,1.65-2.1,1.22-4.9.36-8.36-.94-3.78-1.37-6.64-2.62-6.35l.2,1.74c-1.56,2.49-9.65,3.22-13.25,1.5C624.55,661.9,618.31,672.27,616,674.75Z" transform="translate(-149.06 -230.25)"/><path id="_Path_38" data-name="&lt;Path&gt;" class="cls-16" d="M612.49,678.29v0c1.22-1.11,2.41-2.26,3.55-3.51a98,98,0,0,0,6.61-9.74,11,11,0,0,0,1.85-7c-.29-2.62-1-9.32-1-9.32l12.82-.91,1.49,12.57h0c.31,2.85-2,5.38-6.21,9s-9.48,12-13.26,14.09-6.47,2-8.09.95S608.42,682.45,612.49,678.29Z" transform="translate(-149.06 -230.25)"/><path id="_Path_39" data-name="&lt;Path&gt;" class="cls-8" d="M664.81,675.9V674c-.76,2.26-4.29,12-9.64,16.87-4.25,3.88-10,8.36-11.52,12.68-1.54,4.5,8.07,6,12,5.3,4.61-.81,10.58-3.43,13.83-7.42,2.29-2.81,3.74-6.14,5.38-8.35s5.39-4.67,6.27-7.22c.48-1.41-.09-4.48-.77-7.08-.63-2.38-1.3-5-2.12-4.78v1.47c-1,1.09-3.68,2.16-6.74,2.28C669.57,677.79,664.79,677.4,664.81,675.9Z" transform="translate(-149.06 -230.25)"/><path id="_Path_40" data-name="&lt;Path&gt;" class="cls-16" d="M651.32,694.25c1.32-1.17,2.65-2.32,3.85-3.42,3.74-3.41,6.59-9.19,8.22-13.13a18.39,18.39,0,0,0,1.42-7.09v-7.68h13.47v12.5h0v.33l-.06,0c-.65,2.8-6.84,10.25-10.35,15.11-2.36,3.25-6.83,7.39-12.18,8.11C650.62,699.69,648,698.1,651.32,694.25Z" transform="translate(-149.06 -230.25)"/><path id="_Path_41" data-name="&lt;Path&gt;" class="cls-17" d="M675.6,466.45c10.45,22.82-.38,103.21-.38,103.21.32,3.7,4.55,11,6.13,27.29,1.86,19.25-2.92,67.61-2.92,67.61a14.58,14.58,0,0,1-13.62.54s-12.85-72.83-15.26-92c-2.11-16.71-6.16-56-6.16-56l-10.5,56.34s3.41,9.18,4.1,16.31c1.1,11.26.28,63.35.28,63.35s-4.61,3.51-13.44,2.21c0,0-15.29-71.32-16.47-84.87-.71-8.1,8.52-107.37,8.52-107.37Z" transform="translate(-149.06 -230.25)"/><path id="_Path_42" data-name="&lt;Path&gt;" class="cls-18" d="M643.39,517.14,640,498.48s-14.35-3-20.86-9.09c0,0,6.83,8.49,17,11.27L639.92,517l-6,51Z" transform="translate(-149.06 -230.25)"/></g><g id="_Group_24" data-name="&lt;Group&gt;"><path id="_Path_43" data-name="&lt;Path&gt;" class="cls-16" d="M692.63,456.53c-.11-1.5-2.91-17.48-4.84-26.41L669,435.88l3.33,16.44L688.17,465C693.13,464,692.74,458,692.63,456.53Z" transform="translate(-149.06 -230.25)"/><polygon id="_Path_44" data-name="&lt;Path&gt;" class="cls-16" points="452.72 192.59 443.85 208.87 457.66 220.71 470.31 200.65 452.72 192.59"/><path id="_Path_45" data-name="&lt;Path&gt;" class="cls-17" d="M635.1,386.56c-8.81.09-18.51,3.3-21.84,10.2s-12.58,25.95-12.58,25.95,8.22,11.17,20.57,10.37Z" transform="translate(-149.06 -230.25)"/><path id="_Path_46" data-name="&lt;Path&gt;" class="cls-1" d="M653.33,386.88l7.33.29c8,1.92,10.85,7.39,14.2,14.47a22.91,22.91,0,0,1,.63,17.26l-9.33,27s4.37,10.56,9.44,20.54c-23.42,13.08-52.67,6.2-59.72-3.34-.3-2,.11-11.14-.46-21.52-.6-11.07-2.12-23.57-.38-30.41,3.23-12.7,9.28-24.62,21.32-24.62Z" transform="translate(-149.06 -230.25)"/><path id="_Path_47" data-name="&lt;Path&gt;" class="cls-17" d="M660.66,387.17c8,1.13,19.73,2.74,23.78,21.75,4.1,19.25,4.89,23.84,4.89,23.84s-7,7-20.26,6.91C669.07,439.67,657.38,401.85,660.66,387.17Z" transform="translate(-149.06 -230.25)"/><path id="_Path_48" data-name="&lt;Path&gt;" class="cls-19" d="M668.72,438.49c-1.47-5-3-10.81-4.5-17,0,0,.06,13.5,2.36,23.2Z" transform="translate(-149.06 -230.25)"/></g><g id="_Group_25" data-name="&lt;Group&gt;"><path id="_Path_49" data-name="&lt;Path&gt;" class="cls-16" d="M626.76,333.29c-3.16,1.87-7.08,9.84-6.69,26.53.33,14.15,4.91,17.65,7.22,18.65s6.74.4,11.06-.32v8.49s-6,6.93-5.59,10.83,8.61,4.81,14.2,1a36.24,36.24,0,0,0,9.16-9.6V368.35s2.92,3.9,7.69.73,5-11,2.17-13.82-8.74-1.92-9.86,2c0,0-6.88.25-16-4.79A25.78,25.78,0,0,1,626.76,333.29Z" transform="translate(-149.06 -230.25)"/><path id="_Path_50" data-name="&lt;Path&gt;" class="cls-20" d="M638.35,378.15c4.55-.6,13.91-3.29,15.37-7a9.59,9.59,0,0,1-3.28,4.72c-2.8,2.4-12.09,5.1-12.09,5.1Z" transform="translate(-149.06 -230.25)"/></g><g id="_Group_26" data-name="&lt;Group&gt;"><polygon id="_Path_51" data-name="&lt;Path&gt;" class="cls-6" points="414.82 191.59 466.48 205.2 481.73 269.31 432.61 255.04 414.82 191.59"/><path id="_Path_52" data-name="&lt;Path&gt;" class="cls-21" d="M586.4,464.27c-.48,1.31-3.31,4.94-9.32,4.65l-.75-2.65Z" transform="translate(-149.06 -230.25)"/><path id="_Path_53" data-name="&lt;Path&gt;" class="cls-21" d="M597.94,466.27c.23,1.71,3.74,4.88,9.68,6.86,6.76,2.25,17.13,1.06,17.13,1.06l-.93-3.19Z" transform="translate(-149.06 -230.25)"/><path id="_Path_54" data-name="&lt;Path&gt;" class="cls-21" d="M579,431.13l-.43-2c-.23-1.09,2.8-1.14,6.77-.11l7.61,2c4,1,7.39,2.75,7.63,3.83l.42,2Z" transform="translate(-149.06 -230.25)"/><g id="_Group_27" data-name="&lt;Group&gt;"><path id="_Path_55" data-name="&lt;Path&gt;" class="cls-7" d="M575.42,423.69c-.15-.68,1.08-.85,2.74-.39l3,.83s-.89-4.26,5.79-2.77,8.15,6.32,8.15,6.32l3.22.92c1.78.5,3.39,1.46,3.6,2.14l.38,1.22-26.61-7Z" transform="translate(-149.06 -230.25)"/><path id="_Path_56" data-name="&lt;Path&gt;" class="cls-7" d="M579.08,425.82c2.44.59,3.45.91,3.82,2.59.41,1.92.58,3.32.58,3.32l11.78,3.12s-.57-2.43-.75-3.37.22-1.52,2.09-1l.16-.75L578.31,425Z" transform="translate(-149.06 -230.25)"/><path id="_Path_57" data-name="&lt;Path&gt;" class="cls-7" d="M578.68,431.31l-.43-2c-.24-1.09,2.8-1.13,6.77-.1l7.61,2c4,1,7.39,2.75,7.63,3.84l.42,2Z" transform="translate(-149.06 -230.25)"/></g></g><path id="_Path_58" data-name="&lt;Path&gt;" class="cls-16" d="M688.17,465l-15.83-12.7s-35,6.23-39.08,6.55A10.78,10.78,0,0,1,623,452.26c-1.57-4-4.33-3.53-4.33-3.53l1.61,6.74c.38,1.63-9.47,3-14.93,1.13s-13.37.83-8.47,8.27,14.42,8.3,21,8.3a71,71,0,0,0,8.28-.55c2.14-.28,4.27-.5,6.42-.65C646.19,471,682,467,688.17,465Z" transform="translate(-149.06 -230.25)"/><path id="_Path_59" data-name="&lt;Path&gt;" class="cls-16" d="M569.13,440.59l2.29,8.17c.44,1.58,6.45,4.44,10.25,5.48s8,2.28,6.15,7.59c-1.66,4.9-7.9,6-11.09,5.88s-7.53-3.18-9.25-8.09c-2.19-6.25-1-12.93-1.88-16.58S567.23,438.41,569.13,440.59Z" transform="translate(-149.06 -230.25)"/><path id="_Path_60" data-name="&lt;Path&gt;" class="cls-8" d="M673.11,411.18h0a17,17,0,0,1-17-17V370.35h0a17,17,0,0,1,17,17Z" transform="translate(-149.06 -230.25)"/></g></svg>