<svg id="Layer_1" data-name="Layer 1" xmlns="http://www.w3.org/2000/svg" viewBox="0 0 674.36 602.61"><defs><style>.cls-1{fill:#f5f5f5;}.cls-2{fill:#ececec;}.cls-3{fill:#f48a0b;}.cls-4{fill:#fff;}.cls-11,.cls-5{fill:#f7991c;}.cls-6{fill:#375a64;}.cls-7,.cls-9{fill:#2b454e;}.cls-8{fill:#1a2e35;}.cls-9{stroke:#2b454e;stroke-miterlimit:10;}.cls-10{fill:#ffe1c0;}.cls-11{opacity:0.25;}.cls-12{fill:#ffc398;}.cls-13{fill:#445c66;}.cls-14{fill:#f28808;}</style></defs><title>LoginPage</title><path id="_Path_" data-name="&lt;Path&gt;" class="cls-1" d="M242.08,805.64c131.68,52.53,345.17,52.53,476.84,0s131.68-137.72,0-190.25-345.17-52.54-476.84,0S110.4,753.1,242.08,805.64Z" transform="translate(-143.32 -242.43)"/><ellipse id="_Path_2" data-name="&lt;Path&gt;" class="cls-2" cx="558.96" cy="513.11" rx="43.91" ry="20.93"/><g id="_Group_" data-name="&lt;Group&gt;"><g id="_Group_2" data-name="&lt;Group&gt;"><path id="_Path_3" data-name="&lt;Path&gt;" class="cls-3" d="M255.66,744.39l15.52-9a62.21,62.21,0,0,0,19.15-26.89c4.8-13.22,4.14-23.28.7-28.33-4.24-6.2-15.19-5.12-15.62,8C274.55,713.93,267,731.76,255.66,744.39Z" transform="translate(-143.32 -242.43)"/><path class="cls-4" d="M255.66,745.35a1,1,0,0,1-.79-.42,1,1,0,0,1,.24-1.32c35.92-24.86,29-59.49,28.89-59.83a1,1,0,1,1,1.87-.41c.07.36,7.33,36.2-29.67,61.81A1,1,0,0,1,255.66,745.35Z" transform="translate(-143.32 -242.43)"/></g><g id="_Group_3" data-name="&lt;Group&gt;"><path id="_Path_4" data-name="&lt;Path&gt;" class="cls-5" d="M224.61,762.32s-5.41-4.4-4.1-10.36,4.79-10.24-1.2-17.93-7.54-17.92-.49-23.48c5.45-4.29,14,1.8,17-9.58,2.24-8.29,1.47-26.66,12-32.77s17.15,3.09,15.53,15.55c-1.46,11.14-3.5,21.87-1.92,24.79,3.08,5.71,8.39,4.94,8.15,15.41-.23,9.75-9.45,17.82-9.45,17.82Z" transform="translate(-143.32 -242.43)"/><path class="cls-4" d="M242.36,753a1,1,0,0,1-.94-.84c-2.74-22.64,3.78-61.74,9.17-73.36a1,1,0,0,1,1.73.8C247,691,240.7,730.31,243.31,752a1,1,0,0,1-.83,1.06Z" transform="translate(-143.32 -242.43)"/><path class="cls-4" d="M241.85,735.39a1,1,0,0,1-.42-.09c-6.63-3.25-10.84-14.76-11-15.25a1,1,0,1,1,1.8-.64c0,.11,4.11,11.27,10.05,14.17a1,1,0,0,1-.42,1.81Z" transform="translate(-143.32 -242.43)"/><path class="cls-4" d="M241.74,743a1,1,0,0,1-.36-1.84c11.16-4.47,18.12-17.77,18.19-17.9a.94.94,0,0,1,1.28-.41,1,1,0,0,1,.41,1.29c-.29.57-7.35,14.06-19.17,18.79A.84.84,0,0,1,241.74,743Z" transform="translate(-143.32 -242.43)"/></g></g><g id="_Group_4" data-name="&lt;Group&gt;"><path id="_Path_5" data-name="&lt;Path&gt;" class="cls-5" d="M608.15,653.21S599.8,639.69,599,625s2.42-20.82,6.85-22.57,4.77,3.64,7.06,6.84,6.92,1.37,8.63-8.58,8-26.81,21-30c14.33-3.55,6.64,13.26,3,19.82s-6.4,15.5-4,17.93,6-2.06,9.58,2.11c4.26,5-9,23.11-16.58,27.5Z" transform="translate(-143.32 -242.43)"/><path class="cls-4" d="M619.6,647.52h-.05a.94.94,0,0,1-.9-1c2.1-39.13,21.2-66.23,21.39-66.5a1,1,0,0,1,1.55,1.11c-.18.27-19,26.94-21,65.49A1,1,0,0,1,619.6,647.52Z" transform="translate(-143.32 -242.43)"/><path class="cls-4" d="M620.69,636.24a1,1,0,0,1-.46-.12c-5.35-3-8.32-11.75-8.44-12.13a1,1,0,0,1,1.82-.6c0,.09,2.85,8.46,7.55,11.05a1,1,0,0,1-.47,1.8Z" transform="translate(-143.32 -242.43)"/><path class="cls-4" d="M621.63,630.44a1,1,0,0,1-.23-1.88c13.79-3.49,18.57-10.72,18.61-10.79a1,1,0,0,1,1.32-.29,1,1,0,0,1,.29,1.32c-.2.32-5.16,7.92-19.75,11.61Z" transform="translate(-143.32 -242.43)"/></g><path id="_Path_6" data-name="&lt;Path&gt;" class="cls-3" d="M400.28,623.5S382,619,381,584.72c-1-37,4.49-80.25-17.12-83.76s-33.74,23-33.46,53.78c.25,27,11.13,85.7,69.86,97.2Z" transform="translate(-143.32 -242.43)"/><path class="cls-4" d="M400.28,648.41h-.17c-13.22-2.41-24-9.68-32-21.61-23.74-35.41-16.26-101.53-13.8-113.07a1,1,0,0,1,1.87.39c-2.43,11.42-9.85,76.76,13.52,111.62,7.7,11.48,18,18.48,30.72,20.79a1,1,0,0,1-.17,1.89Z" transform="translate(-143.32 -242.43)"/><g id="_Group_5" data-name="&lt;Group&gt;"><path id="_Path_7" data-name="&lt;Path&gt;" class="cls-5" d="M400.28,736.5c-18.94,2.57-49.72,2.52-67.44-11.46s-14-26-7.22-31.06,12.74-10.77,1-21.92S296,643,289.94,616.09s-3.09-43.7,8.91-49.3c11.64-5.44,14.71,3.2,21.83,21s23.17,2.54,36.88,8.11,13.18,16.56,14,26S377,634,384.76,634s15.52,4.49,15.52,13.45Z" transform="translate(-143.32 -242.43)"/><path class="cls-4" d="M400.28,705.28a.73.73,0,0,1-.25,0c-.82-.23-20.42-5.93-48.94-32.13-30.38-27.9-44.72-69.74-44.86-70.16a1,1,0,0,1,1.81-.61c.14.41,14.34,41.8,44.35,69.37,28.13,25.84,47.95,31.64,48.15,31.69a1,1,0,0,1-.26,1.88Z" transform="translate(-143.32 -242.43)"/><path class="cls-4" d="M359,679.79a1,1,0,0,1-.89-.61c-6.13-15.76-7.52-49.45-7.58-50.88a1,1,0,0,1,.92-1,1,1,0,0,1,1,.92c0,.35,1.43,34.79,7.45,50.25a1,1,0,0,1-.55,1.24A.83.83,0,0,1,359,679.79Z" transform="translate(-143.32 -242.43)"/><path class="cls-4" d="M358.87,702.45a48,48,0,0,1-5.27-.26,1,1,0,0,1-.84-1.06.94.94,0,0,1,1.06-.84c.18,0,18,2,26.12-6.3a1,1,0,0,1,1.37,1.34C375.33,701.42,365.09,702.45,358.87,702.45Z" transform="translate(-143.32 -242.43)"/></g><path id="_Path_8" data-name="&lt;Path&gt;" class="cls-6" d="M593.83,257.86l-162,93.52c-4.57,2.64-8.27,9.05-8.27,14.33V749.94c0,5.28,3.7,7.42,8.27,4.78l162-93.52c4.57-2.64,8.27-9.06,8.27-14.33V262.63C602.1,257.36,598.4,255.22,593.83,257.86Z" transform="translate(-143.32 -242.43)"/><path id="_Path_9" data-name="&lt;Path&gt;" class="cls-7" d="M431.84,351.38l162-93.52c4.08-2.36,7.47-.89,8.14,3.21-.62-4.92-4-10.38-8.14-12.77l-6.74-3.89c-4.57-2.64-12-2.64-16.55,0l-162,93.52a17,17,0,0,0-5.85,6.18L426,357.55A17,17,0,0,1,431.84,351.38Z" transform="translate(-143.32 -242.43)"/><path id="_Path_10" data-name="&lt;Path&gt;" class="cls-8" d="M400.28,736.5c0,5.28,3.71,11.69,8.28,14.33l6.74,3.89c4.13,2.39,10.56,2.59,15.14.67-3.9,1.48-6.87-.72-6.87-5.45V365.71a16.91,16.91,0,0,1,2.42-8.16L402.7,344.11a17,17,0,0,0-2.42,8.16Z" transform="translate(-143.32 -242.43)"/><path id="_Path_11" data-name="&lt;Path&gt;" class="cls-4" d="M436.3,402.59l153.07-88.38c2.75-1.59,5-.3,5,2.86V601.39a11,11,0,0,1-5,8.6L436.3,698.37c-2.75,1.59-5,.3-5-2.86V411.19A11,11,0,0,1,436.3,402.59Z" transform="translate(-143.32 -242.43)"/><path id="_Path_12" data-name="&lt;Path&gt;" class="cls-7" d="M512.83,319.19a6.47,6.47,0,0,0-2.91,5.05c0,1.85,1.31,2.6,2.91,1.68a6.45,6.45,0,0,0,2.92-5.05C515.75,319,514.44,318.27,512.83,319.19Z" transform="translate(-143.32 -242.43)"/><path id="_Path_13" data-name="&lt;Path&gt;" class="cls-7" d="M512.84,667.84c-6.35,3.66-11.5,12.57-11.5,19.9s5.15,10.3,11.5,6.64,11.49-12.58,11.49-19.91S519.19,664.17,512.84,667.84Z" transform="translate(-143.32 -242.43)"/><g id="_Group_6" data-name="&lt;Group&gt;"><path id="_Path_14" data-name="&lt;Path&gt;" class="cls-7" d="M485.34,348.77a12.88,12.88,0,0,0-5.82,10.08c0,3.72,2.61,5.22,5.82,3.36a12.84,12.84,0,0,0,5.82-10.08C491.16,348.42,488.56,346.91,485.34,348.77Z" transform="translate(-143.32 -242.43)"/><path id="_Path_15" data-name="&lt;Path&gt;" class="cls-7" d="M499.58,347.51c0,2.48,1.85,3.41,4.13,2.09L542,327.49a8.85,8.85,0,0,0,4.14-6.87c0-2.47-1.85-3.41-4.14-2.09l-38.3,22.11A8.89,8.89,0,0,0,499.58,347.51Z" transform="translate(-143.32 -242.43)"/></g><path id="_Path_16" data-name="&lt;Path&gt;" class="cls-7" d="M413.16,414.89a10.29,10.29,0,0,1,4.66,8.07c0,3-2.08,4.17-4.66,2.69a10.31,10.31,0,0,1-4.65-8.07C408.51,414.61,410.59,413.41,413.16,414.89Z" transform="translate(-143.32 -242.43)"/><path id="_Path_17" data-name="&lt;Path&gt;" class="cls-7" d="M413.16,450.77a10.29,10.29,0,0,1,4.66,8.07c0,3-2.08,4.17-4.66,2.69a10.31,10.31,0,0,1-4.65-8.07C408.51,450.49,410.59,449.29,413.16,450.77Z" transform="translate(-143.32 -242.43)"/><path id="_Path_18" data-name="&lt;Path&gt;" class="cls-6" d="M411.73,415.61a10.29,10.29,0,0,1,4.65,8.07c0,3-2.08,4.17-4.65,2.69a10.29,10.29,0,0,1-4.66-8.07C407.07,415.33,409.15,414.12,411.73,415.61Z" transform="translate(-143.32 -242.43)"/><path id="_Path_19" data-name="&lt;Path&gt;" class="cls-6" d="M411.73,451.49a10.31,10.31,0,0,1,4.65,8.07c0,3-2.08,4.17-4.65,2.69a10.29,10.29,0,0,1-4.66-8.07C407.07,451.21,409.15,450,411.73,451.49Z" transform="translate(-143.32 -242.43)"/><g id="_Group_7" data-name="&lt;Group&gt;"><path id="_Path_20" data-name="&lt;Path&gt;" class="cls-4" d="M594.34,317.07c0-3.16-2.22-4.45-5-2.86l-18.33,10.58L436.3,402.59a11,11,0,0,0-5,8.6V695.51c0,3.16,2.23,4.44,5,2.86l134.8-77.83L589.38,610a11,11,0,0,0,5-8.6Z" transform="translate(-143.32 -242.43)"/><path class="cls-9" d="M434.08,700a3.46,3.46,0,0,1-1.77-.46,4.38,4.38,0,0,1-1.93-4V411.19a11.86,11.86,0,0,1,5.44-9.43L570.58,324l.95,1.65-134.76,77.8a10.11,10.11,0,0,0-4.48,7.78V695.51a2.11,2.11,0,0,0,3.53,2l134.8-77.83,1,1.65L436.78,699.2A5.46,5.46,0,0,1,434.08,700Z" transform="translate(-143.32 -242.43)"/><path class="cls-9" d="M571.58,621.37l-1-1.65,18.28-10.55a10.12,10.12,0,0,0,4.49-7.78V317.07a2.11,2.11,0,0,0-3.54-2l-18.32,10.58-.95-1.65,18.32-10.58a4,4,0,0,1,6.4,3.69V601.39a11.85,11.85,0,0,1-5.45,9.43Z" transform="translate(-143.32 -242.43)"/></g><path id="_Path_21" data-name="&lt;Path&gt;" class="cls-5" d="M512.84,383.15c17.14-9.91,31-1.88,31,17.92S530,445,512.84,454.85s-31.05,1.88-31.05-17.93S495.69,393.05,512.84,383.15Z" transform="translate(-143.32 -242.43)"/><path id="_Path_22" data-name="&lt;Path&gt;" class="cls-10" d="M512.84,398.73c5.56-3.21,10.07-.61,10.07,5.81S518.4,418.78,512.84,422s-10.08.61-10.08-5.81S507.27,401.94,512.84,398.73Z" transform="translate(-143.32 -242.43)"/><path id="_Path_23" data-name="&lt;Path&gt;" class="cls-10" d="M532.47,433c0-10.55-7.41-14.83-16.55-9.55l-5.71,3.3c-9.14,5.27-16.55,18.11-16.55,28.66v2.84c5.28,1.75,11.93.8,19.18-3.38,7.45-4.3,14.28-11.28,19.63-19.42Z" transform="translate(-143.32 -242.43)"/><path id="_Path_24" data-name="&lt;Path&gt;" class="cls-5" d="M452.76,498.52l39.95-23.07c1.83-1.06,3.31-.2,3.31,1.91v1.32a7.3,7.3,0,0,1-3.31,5.73l-39.95,23.07c-1.83,1.06-3.31.2-3.31-1.91v-1.32A7.3,7.3,0,0,1,452.76,498.52Z" transform="translate(-143.32 -242.43)"/><path id="_Path_25" data-name="&lt;Path&gt;" class="cls-11" d="M451.11,526.36,572,456.57c.92-.53,1.66-.1,1.66.95v14.11A3.67,3.67,0,0,1,572,474.5L451.11,544.29c-.92.53-1.66.1-1.66-1v-14.1A3.65,3.65,0,0,1,451.11,526.36Z" transform="translate(-143.32 -242.43)"/><path id="_Path_26" data-name="&lt;Path&gt;" class="cls-5" d="M452.76,561.26l39.95-23.07c1.83-1.05,3.31-.2,3.31,1.91v1.32a7.33,7.33,0,0,1-3.31,5.74l-39.95,23.06c-1.83,1.06-3.31.2-3.31-1.91V567A7.31,7.31,0,0,1,452.76,561.26Z" transform="translate(-143.32 -242.43)"/><path id="_Path_27" data-name="&lt;Path&gt;" class="cls-11" d="M451.11,589.11,572,519.31c.92-.53,1.66-.1,1.66,1v14.1a3.65,3.65,0,0,1-1.66,2.87L451.11,607c-.92.53-1.66.1-1.66-.95V592A3.63,3.63,0,0,1,451.11,589.11Z" transform="translate(-143.32 -242.43)"/><path id="_Path_28" data-name="&lt;Path&gt;" class="cls-5" d="M499.34,597.11l47.71-27.55c1.83-1,3.31-.2,3.31,1.92v14.76a7.3,7.3,0,0,1-3.31,5.73l-47.71,27.55c-1.83,1.06-3.32.2-3.32-1.91V602.85A7.33,7.33,0,0,1,499.34,597.11Z" transform="translate(-143.32 -242.43)"/><path id="_Path_29" data-name="&lt;Path&gt;" class="cls-12" d="M627.32,545s-23.48-32.39-24.91-36.24c-1.08-2.9.08-7.23.34-9.23s.66-6.48,1-7.73c.58-2.17-2.23-1.72-3.81.25s-2.14,6-2.94,6.62-7.08-8.46-10.35-12.68-5.32-6.76-7.31-5.2c-1.43,1.13-.37,3.59,2,7.18s3.42,5.25,3.78,6-1.6.84-2.65,2.46c-.82,1.26-.06,3.31-1.14,4.29a3.58,3.58,0,0,0-.91,4.71,30.66,30.66,0,0,0,8.08,8.55c3.51,2.44,4.93,3.29,7,6.6s20.78,37.08,22,39.11,3.7,6.15,7.38,6.27,33.88-25.88,35.44-27.17c5-4.15,6.54-4.76,7.4-1,.27,1.17.44,2.5.63,4,.6,4.73,3.82,21.66,3.82,21.66s15.27,7.4,27.84,3.75,16.79-8.89,16.79-8.89l-6.29-10.25c1.71-4.24,9.62-21.35,12.1-33.34l-39.36-6.35c-.81-.18-2.1-.5-3.75-.94-2.16-.56-7.59-2.47-11.78,1.17C654.21,520.41,627.32,545,627.32,545" transform="translate(-143.32 -242.43)"/><path id="_Path_30" data-name="&lt;Path&gt;" class="cls-7" d="M705.37,743.64l-7.06,9.8s3.27,1.92,10.25,2.19c6.31.24,8.05-1.84,8.28-2.34,1.07-2.28-.59-6.41-1.05-9.95Z" transform="translate(-143.32 -242.43)"/><path id="_Path_31" data-name="&lt;Path&gt;" class="cls-7" d="M698.71,748.74s-8.56-.55-14.47-1.29-10.59,2.14-9.2,4.57,4.64,4.46,9.71,6.16c4.34,1.47,9.55,2.53,14.08,3.88s7.62,3,10.25,2.08c2.93-1,4.19-2.18,3.94-4.32a92.85,92.85,0,0,0-2.37-9Z" transform="translate(-143.32 -242.43)"/><path id="_Path_32" data-name="&lt;Path&gt;" class="cls-12" d="M716.84,733.78s-1.07,8.91-1.15,10.82-8.69,2.53-10.32-1l-.27-10.89Z" transform="translate(-143.32 -242.43)"/><path id="_Path_33" data-name="&lt;Path&gt;" class="cls-12" d="M708.16,739.26l3.08,13.52s.29,1.65-6.75,2.69-18.08-3.68-20-4.64-2.11-2.87,4.8-2.49,9.37.4,9.37.4l-2.25-6Z" transform="translate(-143.32 -242.43)"/><path id="_Path_34" data-name="&lt;Path&gt;" class="cls-12" d="M722.65,514.75l4.87-1.34s10.19,32.23,11.32,35.34,2.4,6.41.21,10.25c-2.62,4.57-16.4,23-16.4,23l-8.74-8.56,9.92-18.18-8.78-17.79Z" transform="translate(-143.32 -242.43)"/><path id="_Path_35" data-name="&lt;Path&gt;" class="cls-7" d="M672.55,472.86a14.36,14.36,0,0,1,.21-13.89c4.84-9,15.67-13.41,28.56-11.72,5.95.77,13,5.66,16.83,13.12,4.23,8.2,4.63,24.71,5.68,31Z" transform="translate(-143.32 -242.43)"/><path id="_Path_36" data-name="&lt;Path&gt;" class="cls-12" d="M672.26,476.38s-3.06,5.83-2.53,6.36a7.85,7.85,0,0,0,2.57,1Z" transform="translate(-143.32 -242.43)"/><path id="_Path_37" data-name="&lt;Path&gt;" class="cls-12" d="M681.55,458c-3.33,2.17-9.06,6.14-9.31,19.23-.26,13.45,1.64,17.78,3.63,19.34,1.34,1.05,9.19.52,12.56-.27s13.06-5.58,16.55-12.86c4.1-8.56,3.27-21.1-2.84-24.74C693.55,453.53,684.37,456.12,681.55,458Z" transform="translate(-143.32 -242.43)"/><path id="_Path_38" data-name="&lt;Path&gt;" class="cls-13" d="M716.84,558.34c5.89,9.17,11.5,17.24,12.69,27.55,2.52,21.77-5.76,46.65-7.51,62.74,0,0,5.56,7.23,5.55,15.73,0,6.65-10.73,69.42-10.73,69.42s-7.8,2.38-11.74-1l-7.37-115.49,3.88-14.06Z" transform="translate(-143.32 -242.43)"/><path id="_Path_39" data-name="&lt;Path&gt;" class="cls-7" d="M697.73,617.26l3.88-14.06a94,94,0,0,0,21-8.35s-4,7.24-15.39,11.21l-5.94,18.07-.52,41.36Z" transform="translate(-143.32 -242.43)"/><path id="_Path_40" data-name="&lt;Path&gt;" class="cls-13" d="M716.84,558.34c3.15,5.14,10.69,13.94,9.09,22.4C724,591,718.47,598.19,701.61,603.2l-15.82,57.28s8.24,7.71,10.76,15,11.61,63.74,11.61,63.74-2.81,4.6-11.7,3.49c0,0-31-70.76-33.16-75.31s-3.61-8-2.63-15.38,11.54-88.58,11.54-88.58Z" transform="translate(-143.32 -242.43)"/><path id="_Path_41" data-name="&lt;Path&gt;" class="cls-5" d="M722.65,514.75l-39.36-6.35c-.81-.18-2.11-.5-3.75-.94h0s-1.67,24.68-11.77,30.35h0c.24,1.17.44,2.5.63,4,.6,4.73,3.82,21.66,3.82,21.66s15.27,7.4,27.84,3.75,16.79-8.89,16.79-8.89l-6.29-10.25C712.26,543.85,720.17,526.74,722.65,514.75Z" transform="translate(-143.32 -242.43)"/><path id="_Path_42" data-name="&lt;Path&gt;" class="cls-14" d="M712.27,544.06c-.16.37-12.66,7.06-16.37,8.09a30.73,30.73,0,0,0,14.65-4.06Z" transform="translate(-143.32 -242.43)"/><path id="_Path_43" data-name="&lt;Path&gt;" class="cls-7" d="M680.57,458.62s-1.84,12.42,2.61,19.71c0,0,1.67-4.94,5.87-4s4.41,6.45,1.47,9.56a6.11,6.11,0,0,1-6.21,2s-.66,9-1,16.51c-.34,7.26-2.36,23.94,6.11,30.65s29.72,9,39.67-4.94c5.54-7.74-1.82-21.43-5.24-36.77-3.15-14.11-4.92-35-19.89-38.37S680.57,458.62,680.57,458.62Z" transform="translate(-143.32 -242.43)"/><path id="_Path_44" data-name="&lt;Path&gt;" class="cls-2" d="M751.67,287.72l-3.16,1.83a16,16,0,0,0,.44-3.43c0-6.39-4.49-9-10-5.79a18,18,0,0,0-4.46,3.84v-.05c0-8.61-6-12.1-13.49-7.79s-13.5,14.76-13.5,23.37c0,.44,0,.85.06,1.27a8.14,8.14,0,0,0-5.48,1.27c-5.54,3.2-10,11-10,17.36a11.2,11.2,0,0,0,.26,2.41l-1.68,1c-4.57,2.64-8.28,7.79-8.28,11.5s3.71,4.59,8.28,1.95l61.07-35.26c4.57-2.64,8.27-7.79,8.27-11.5S756.24,285.08,751.67,287.72Z" transform="translate(-143.32 -242.43)"/><path id="_Path_45" data-name="&lt;Path&gt;" class="cls-2" d="M364.3,332.81l-5.15,3a26.8,26.8,0,0,0,.7-5.59c0-10.44-7.33-14.67-16.37-9.45a29.43,29.43,0,0,0-7.27,6.25v-.07c0-14.05-9.86-19.75-22-12.73s-22,24.12-22,38.17c0,.71,0,1.39.1,2.06-2.58-.46-5.65.18-9,2.09-9,5.21-16.36,17.9-16.36,28.34a18.41,18.41,0,0,0,.41,3.94l-2.74,1.58c-7.47,4.31-13.51,12.72-13.51,18.78s6,7.48,13.51,3.17l99.71-57.57c7.46-4.3,13.51-12.71,13.51-18.77S371.76,328.5,364.3,332.81Z" transform="translate(-143.32 -242.43)"/><path id="_Path_46" data-name="&lt;Path&gt;" class="cls-2" d="M273.94,464.89l-3.46,2a17.68,17.68,0,0,0,.48-3.75c0-7-4.92-9.84-11-6.34a19.52,19.52,0,0,0-4.88,4.2v-.06c0-9.42-6.62-13.24-14.78-8.53s-14.78,16.17-14.78,25.6c0,.48,0,.93.07,1.38a9.07,9.07,0,0,0-6,1.4c-6.06,3.5-11,12-11,19a12.6,12.6,0,0,0,.27,2.64l-1.84,1.06c-5,2.89-9.06,8.53-9.06,12.6s4.06,5,9.06,2.13l66.88-38.62c5-2.88,9.06-8.52,9.06-12.59S278.94,462,273.94,464.89Z" transform="translate(-143.32 -242.43)"/></svg>