<svg xmlns="http://www.w3.org/2000/svg" xmlns:xlink="http://www.w3.org/1999/xlink" viewBox="0 0 4100.4 1444.02"><defs><style>.cls-1,.cls-10,.cls-21,.cls-31,.cls-32{fill:none;}.cls-2{isolation:isolate;}.cls-3{fill:url(#linear-gradient);}.cls-11,.cls-4{fill:#181d23;}.cls-4{opacity:0.21;}.cls-5{fill:#f05c22;}.cls-6{fill:#047395;}.cls-7{fill:#e2e2e2;}.cls-8{fill:#0681b4;}.cls-17,.cls-18,.cls-67,.cls-9{fill:#fff;}.cls-10{stroke:#c3c3c3;stroke-width:0.78px;}.cls-10,.cls-21,.cls-31{stroke-miterlimit:10;}.cls-11{opacity:0.55;}.cls-12{fill:#ffcf5b;}.cls-13{fill:#ffdb7a;}.cls-14{fill:#e63d82;}.cls-15{fill:#ef5d97;}.cls-16{fill:#cbd2ea;opacity:0.16;}.cls-17{opacity:0.1;}.cls-18,.cls-66{opacity:0.2;}.cls-19{fill:#779a3e;}.cls-20,.cls-30{fill:#c0d32f;}.cls-21{stroke:#fff;stroke-width:2.56px;}.cls-21,.cls-32{stroke-linecap:round;}.cls-22{fill:#56c1b1;}.cls-23{fill:#68c5b8;}.cls-24{fill:#fde4a5;}.cls-25{fill:#20255a;}.cls-26{fill:#273a7f;}.cls-27{fill:#f89f5b;}.cls-28,.cls-64{fill:#e0f2f9;}.cls-29{fill:#f68f3a;}.cls-30{opacity:0.44;}.cls-31,.cls-32{stroke:#d9e2f1;}.cls-32{stroke-linejoin:round;}.cls-33{fill:#f1b09f;}.cls-34{fill:#a27676;}.cls-35{fill:#f2f2f2;}.cls-36{fill:#fac3b2;}.cls-37{fill:#353535;}.cls-38{fill:#94b73d;}.cls-39{fill:#4f4f4f;}.cls-40{fill:#f1b987;}.cls-41{fill:#fdd0a4;}.cls-42{fill:#723f23;}.cls-43{fill:#442414;opacity:0.34;}.cls-44{fill:#444445;opacity:0.15;}.cls-45{fill:#1c90a7;}.cls-46{fill:#034559;}.cls-47{fill:#47bbdf;}.cls-48{fill:#007393;}.cls-49{fill:#bec9dc;}.cls-50{fill:#75859a;}.cls-51{fill:#f4f9fc;}.cls-52{fill:#d8e1ec;}.cls-53{fill:#ebf6fa;}.cls-54{fill:#1995cd;opacity:0.3;mix-blend-mode:multiply;}.cls-55{fill:#b5e2ef;}.cls-56{fill:#77bcc8;}.cls-57{fill:#ececec;}.cls-58{fill:#3ebfc1;}.cls-59{fill:#6dcad6;}.cls-60{fill:#4e8d92;}.cls-61{fill:#eb8323;}.cls-62{fill:#f8be14;}.cls-63{fill:#9bd8df;}.cls-64{opacity:0.42;}.cls-65{fill:#4e84c4;}.cls-66,.cls-67{mix-blend-mode:screen;}.cls-66{fill:url(#linear-gradient-2);}.cls-67{opacity:0.5;}.cls-68{fill:#28367b;}.cls-69{fill:#80c3e5;}.cls-70{fill:#d4e9f8;}.cls-71{fill:#396bb2;}.cls-72{fill:#2d2d2d;}.cls-73{fill:#3a3a3a;}.cls-74{fill:#4b4d4d;}.cls-75{fill:#2e328b;}.cls-76{fill:#617835;}.cls-77{clip-path:url(#clip-path);}.cls-78{fill:#f69026;}.cls-79{fill:#9996c9;}.cls-80{fill:#4061ac;}</style><linearGradient id="linear-gradient" y1="680.2" x2="4100.4" y2="680.2" gradientUnits="userSpaceOnUse"><stop offset="0" stop-color="#c785b9"/><stop offset="1" stop-color="#8054a1"/></linearGradient><linearGradient id="linear-gradient-2" x1="3290.4" y1="941.62" x2="3361.07" y2="941.62" gradientUnits="userSpaceOnUse"><stop offset="0" stop-color="#b2b9dd" stop-opacity="0.1"/><stop offset="0.62" stop-color="#b2b9dd" stop-opacity="0.24"/><stop offset="1" stop-color="#b2b9dd" stop-opacity="0.3"/></linearGradient><clipPath id="clip-path"><path class="cls-1" d="M3200.36,875.45c-21.69,0-36.81-9.76-36.81-18.52s-9.8-136.79,55.77-132.38c21.64,1.46,17.85,123.62,17.85,132.38S3222.05,875.45,3200.36,875.45Z"/></clipPath></defs><title>HomePage</title><g class="cls-2"><g id="Layer_1" data-name="Layer 1"><path class="cls-3" d="M4100.4,1360.39,3385,1175.56a1247.63,1247.63,0,0,0-626.55.54l-169.2,44a2117.85,2117.85,0,0,1-1077.47-2.72l-149.44-39.69a1247.58,1247.58,0,0,0-626.85-3.62L0,1360.39V0H4100.4Z"/><path class="cls-4" d="M3704.1,1071.2,3097.15,847.82l-658.94,230.86c-44.53,20.79-41.87,85,4.23,102l597.83,243Z"/><polygon class="cls-5" points="2415.1 1009.59 3033.56 1227.99 3627.28 928.67 3118.21 732.24 2415.1 1009.59"/><path class="cls-6" d="M3034.79,1379.66,2417.91,1143.8c-30.95-11.83-40-48.65-37.1-78.37,1.48-15.22,4.84-30.25,13.8-42.92,8.25-11.66,20.21-20.89,34.16-24.48a52.64,52.64,0,0,1,34.47,3.05L3008.8,1243.3Z"/><polygon class="cls-6" points="2415.1 1139.03 3033.56 1383.27 3627.28 1072.76 3627.28 1037.38 3116.25 819.19 2415.1 1139.03"/><polygon class="cls-7" points="3031.26 1365.1 3627.28 1055.58 3627.28 922.4 3031.26 1221.82 3031.26 1365.1"/><polygon class="cls-6" points="2415.1 1003.41 3031.21 1221.96 3627.28 922.49 3627.49 907.1 3118.21 726.07 2415.1 1003.41"/><path class="cls-8" d="M2385.13,1041.39s3.28-9.6,19-25.06c31.45-30.89,71-18.54,71-18.54l556.12,207.88,596-298.73L3116,709.92,2439.82,974.5s-22,13.24-34.83,28.91C2387,1025.31,2385.13,1041.39,2385.13,1041.39Z"/><path class="cls-9" d="M3031.26,1365.1l-589.71-234.73a61.14,61.14,0,0,1-38.52-56.8h0c0-42.72,42.7-72.27,82.68-57.21l545.55,205.46Z"/><line class="cls-10" x1="2469.85" y1="1027" x2="3008.8" y2="1236.56"/><line class="cls-10" x1="2440.09" y1="1041.03" x2="3008.8" y2="1261.27"/><line class="cls-10" x1="2428.86" y1="1061.25" x2="3008.8" y2="1285.98"/><line class="cls-10" x1="2424.37" y1="1082.03" x2="3008.8" y2="1310.69"/><line class="cls-10" x1="2432.23" y1="1110.67" x2="3008.8" y2="1335.4"/><path class="cls-11" d="M2661,785.76c0,.34,0,.67,0,1v-1Z"/><path class="cls-11" d="M2660.92,787.71c0-.3,0-.64,0-1v2.15C2660.92,788.49,2660.92,788.12,2660.92,787.71Z"/><line class="cls-10" x1="3043.77" y1="1237.02" x2="3603.69" y2="963.26"/><line class="cls-10" x1="3045.46" y1="1258.36" x2="3605.37" y2="984.6"/><line class="cls-10" x1="3047.14" y1="1279.7" x2="3607.06" y2="1005.93"/><line class="cls-10" x1="3048.83" y1="1301.04" x2="3608.74" y2="1027.27"/><line class="cls-10" x1="3050.51" y1="1322.38" x2="3610.43" y2="1048.61"/><path class="cls-12" d="M2919.62,372.77v123a7.91,7.91,0,0,0,4.34,7.41c.12,0,.25.13.37.16l40.21,16.3,83.06,33.62a4.13,4.13,0,0,0,4.35-1l16.28-13.48a6,6,0,0,0,2.33-4.59V415.31c0-4.65-2.39-8.49-6.37-10l-122.05-49.5a5.27,5.27,0,0,0-5.14,1l-15.49,12.7a3.83,3.83,0,0,0-.55.42A4,4,0,0,0,2919.62,372.77Z"/><path class="cls-13" d="M2919.62,372.77v123a7.91,7.91,0,0,0,4.34,7.41c.12,0,.25.13.37.16l40.21,16.3,83.06,33.62a4.13,4.13,0,0,0,4.35-1,5.11,5.11,0,0,0,1.84-3.75V428.65a9.9,9.9,0,0,0-5.94-9.46l-123.58-50a3,3,0,0,0-2.76.34,3.83,3.83,0,0,0-.55.42A4,4,0,0,0,2919.62,372.77Z"/><path class="cls-9" d="M2980.62,427.56l-8.24,14a2.27,2.27,0,0,1-2.23,1.18l-17.84-3.13c-1.71-.3-3.25,2-2.24,3.25l14.22,18.42a1.68,1.68,0,0,1,.28,1.33l-3.66,20.2a1.49,1.49,0,0,0,1.82,1.84l19.08-3.92a1.58,1.58,0,0,1,1.35.3l17.42,14.75c1.27,1.06,3.5-.5,3.22-2.26l-3.07-18.85a2.36,2.36,0,0,1,1.09-2.23l13.49-8.83c1.35-.88,1.51-2.76.3-3.32l-21.46-10a1.35,1.35,0,0,1-.69-.72l-9.54-22.39C2983.37,425.93,2981.46,426.12,2980.62,427.56Z"/><path class="cls-14" d="M3367.49,508.64v124.8a8,8,0,0,0,4.4,7.51c.13,0,.25.13.38.17l40.79,16.53,84.26,34.11a4.2,4.2,0,0,0,4.4-1l16.52-13.67a6.13,6.13,0,0,0,2.36-4.66V551.79c0-4.72-2.42-8.61-6.46-10.18l-123.8-50.22a5.35,5.35,0,0,0-5.22,1l-15.71,12.88a3.5,3.5,0,0,0-.56.43A4,4,0,0,0,3367.49,508.64Z"/><path class="cls-15" d="M3367.49,508.64v124.8a8,8,0,0,0,4.4,7.51c.13,0,.25.13.38.17l40.79,16.53,84.26,34.11a4.2,4.2,0,0,0,4.4-1,5.18,5.18,0,0,0,1.87-3.81V565.32a10,10,0,0,0-6-9.59L3372.21,505a3,3,0,0,0-2.8.34,3.5,3.5,0,0,0-.56.43A4,4,0,0,0,3367.49,508.64Z"/><path class="cls-9" d="M3416.39,569.05c0,9.87,8,21,17.87,24.84s17.88-1,17.88-10.91-8-21-17.88-24.84S3416.39,559.18,3416.39,569.05Z"/><path class="cls-9" d="M3393.79,622.9l80.91,31.52c-.1-22.3-18.1-47.32-40.46-56-11.13-4.34-21.26-3.76-28.59.71S3393.79,611.77,3393.79,622.9Z"/><path class="cls-16" d="M3030.19,133.75v58a3.73,3.73,0,0,0,2,3.49c.05,0,.11.06.17.08l19,7.68,39.16,15.85a1.94,1.94,0,0,0,2-.46,2.42,2.42,0,0,0,.87-1.77V160.1a4.67,4.67,0,0,0-2.8-4.46L3032.38,132a1.44,1.44,0,0,0-1.3.16,2.26,2.26,0,0,0-.26.2A1.88,1.88,0,0,0,3030.19,133.75Z"/><path class="cls-16" d="M3078.11,190.12v58a3.73,3.73,0,0,0,2,3.49,1.42,1.42,0,0,1,.18.08l19,7.68,39.16,15.85a1.94,1.94,0,0,0,2.05-.46,2.41,2.41,0,0,0,.86-1.77V216.47a4.65,4.65,0,0,0-2.8-4.46l-58.26-23.6a1.43,1.43,0,0,0-1.3.16,2.26,2.26,0,0,0-.26.2A1.85,1.85,0,0,0,3078.11,190.12Z"/><path class="cls-17" d="M2861.71,219v86.78a5.58,5.58,0,0,0,3.07,5.22c.09,0,.17.1.26.12l28.36,11.49L2952,346.34a2.9,2.9,0,0,0,3.06-.69,3.6,3.6,0,0,0,1.3-2.65V258.43a7,7,0,0,0-4.19-6.67L2865,216.46a2.13,2.13,0,0,0-1.95.24,2,2,0,0,0-.39.3A2.77,2.77,0,0,0,2861.71,219Z"/><path class="cls-17" d="M2685.57,323.13V422a6.35,6.35,0,0,0,3.5,6c.1,0,.19.1.29.13l32.32,13.1,66.76,27a3.35,3.35,0,0,0,3.5-.78,4.15,4.15,0,0,0,1.47-3V368a8,8,0,0,0-4.77-7.6l-99.33-40.22a2.4,2.4,0,0,0-2.21.28,2.66,2.66,0,0,0-.44.33A3.17,3.17,0,0,0,2685.57,323.13Z"/><path class="cls-18" d="M3386.28,786.9v76.91a4.94,4.94,0,0,0,2.72,4.63c.07,0,.15.08.22.1l25.14,10.18,51.92,21a2.59,2.59,0,0,0,2.72-.61,3.2,3.2,0,0,0,1.14-2.35V821.83a6.18,6.18,0,0,0-3.71-5.91l-77.24-31.27a1.83,1.83,0,0,0-1.72.21,2,2,0,0,0-.35.26A2.45,2.45,0,0,0,3386.28,786.9Z"/><path class="cls-18" d="M2618.6,347.28v98.88a6.33,6.33,0,0,0,3.5,5.95c.09,0,.19.11.29.14l32.32,13.1,66.76,27a3.31,3.31,0,0,0,3.49-.79,4.08,4.08,0,0,0,1.48-3V392.19a8,8,0,0,0-4.77-7.6l-99.33-40.22a2.43,2.43,0,0,0-2.21.27,2.26,2.26,0,0,0-.44.34A3.17,3.17,0,0,0,2618.6,347.28Z"/><path class="cls-17" d="M3514.61,713.35v96.29a6.19,6.19,0,0,0,3.4,5.79c.1,0,.19.1.29.13l31.47,12.75,65,26.32a3.25,3.25,0,0,0,3.4-.77,4,4,0,0,0,1.44-2.94V757.08a7.75,7.75,0,0,0-4.65-7.4l-96.71-39.16a2.36,2.36,0,0,0-2.15.27,2.52,2.52,0,0,0-.44.33A3.07,3.07,0,0,0,3514.61,713.35Z"/><path class="cls-17" d="M2456.74,746.55v82.93a5.33,5.33,0,0,0,2.93,5c.08,0,.16.09.24.11l27.11,11,56,22.66a2.79,2.79,0,0,0,2.93-.66,3.46,3.46,0,0,0,1.24-2.53V784.21a6.66,6.66,0,0,0-4-6.37l-83.3-33.73a2,2,0,0,0-1.85.23,1.85,1.85,0,0,0-.38.28A2.67,2.67,0,0,0,2456.74,746.55Z"/><path class="cls-19" d="M3153,522.69v82.93a5.33,5.33,0,0,0,2.93,5c.08,0,.16.09.24.11l27.11,11,56,22.67a2.79,2.79,0,0,0,2.93-.66l11-9.09a4.07,4.07,0,0,0,1.57-3.09V551.36a7,7,0,0,0-4.29-6.77l-82.27-33.36a3.53,3.53,0,0,0-3.47.69l-10.43,8.56a1.85,1.85,0,0,0-.38.28A2.65,2.65,0,0,0,3153,522.69Z"/><path class="cls-20" d="M3153,522.69v82.93a5.33,5.33,0,0,0,2.93,5c.08,0,.16.09.24.11l27.11,11,56,22.67a2.79,2.79,0,0,0,2.93-.66,3.46,3.46,0,0,0,1.24-2.53V560.35a6.67,6.67,0,0,0-4-6.37l-83.31-33.73a2,2,0,0,0-1.85.23,1.85,1.85,0,0,0-.38.28A2.65,2.65,0,0,0,3153,522.69Z"/><polyline class="cls-21" points="3170.07 575.36 3182.89 597.78 3225.94 570.71"/><path class="cls-22" d="M2528.14,554.12v82.93a5.33,5.33,0,0,0,2.93,5c.08,0,.17.09.25.11l27.11,11,56,22.66a2.79,2.79,0,0,0,2.93-.66l11-9.08a4.1,4.1,0,0,0,1.57-3.1V582.79a6.94,6.94,0,0,0-4.3-6.76l-82.27-33.37a3.51,3.51,0,0,0-3.46.69l-10.44,8.56a1.8,1.8,0,0,0-.37.28A2.64,2.64,0,0,0,2528.14,554.12Z"/><path class="cls-23" d="M2528.14,554.12v82.93a5.33,5.33,0,0,0,2.93,5c.08,0,.17.09.25.11l27.11,11,56,22.66a2.79,2.79,0,0,0,2.93-.66,3.46,3.46,0,0,0,1.24-2.53V591.78a6.67,6.67,0,0,0-4-6.37l-83.3-33.73a2,2,0,0,0-1.86.23,1.8,1.8,0,0,0-.37.28A2.64,2.64,0,0,0,2528.14,554.12Z"/><path class="cls-9" d="M2587.65,630.64c2.24,3.73,6.35,4.62,9.18,2s3.3-7.79,1.06-11.52-6.36-4.63-9.19-2S2585.4,626.9,2587.65,630.64Z"/><path class="cls-9" d="M2565.76,621.61c2.22,3.75,6.33,4.66,9.17,2s3.34-7.78,1.11-11.52-6.33-4.67-9.17-2S2563.53,617.86,2565.76,621.61Z"/><path class="cls-9" d="M2543.87,612.59c2.21,3.76,6.32,4.69,9.17,2.08s3.37-7.76,1.15-11.51-6.31-4.69-9.16-2.08S2541.66,608.84,2543.87,612.59Z"/><path class="cls-4" d="M3455.08,1205.27l35.71-10.3a6,6,0,0,1,6.67,9L3486,1221.67a25.76,25.76,0,0,1-9.36,8.63l-269.13,145.18a33.45,33.45,0,0,1-35.17-2.11h0a9.88,9.88,0,0,1,1-16.76L3450,1207.35A26,26,0,0,1,3455.08,1205.27Z"/><path class="cls-13" d="M3460.73,1180.45l2.84,6.16,10.82,23.4,32.4-33.48a1.08,1.08,0,0,0-.23-1.72.86.86,0,0,0-.83-.32Z"/><path class="cls-24" d="M3460.73,1180.45l2.84,6.16,9.93.07,33.06-11.87a.86.86,0,0,0-.83-.32Z"/><path class="cls-25" d="M3177.36,1332.27l4.2,8.57,10.8,22L3470.22,1213h0a9.87,9.87,0,0,0,2.12-1.16,12.16,12.16,0,0,0,4.24-5.16,18.9,18.9,0,0,0-.1-14.71,21,21,0,0,0-3-5.19v0c-3.32-4.15-7.93-6.52-12.38-6.29a10.59,10.59,0,0,0-3.72.79,4.42,4.42,0,0,0-.63.27l-.79.44a1.28,1.28,0,0,0-.28.16l-.21.15Z"/><path class="cls-26" d="M3177.36,1332.27l4.2,8.57,12.06-2.85,279.88-151.23v-.06c-3.32-4.15-7.93-6.52-12.38-6.29a10.59,10.59,0,0,0-3.72.79,4.42,4.42,0,0,0-.63.27l-.79.44a1.28,1.28,0,0,0-.28.16l-.21.15Z"/><path class="cls-27" d="M3171.09,1353.3c3.57,8.76,12.12,13.56,19.13,10.72h0a9.64,9.64,0,0,0,2.12-1.16,12.29,12.29,0,0,0,4.24-5.16,18.88,18.88,0,0,0-.1-14.72c-3-7.26-9.34-11.81-15.43-11.51a10.63,10.63,0,0,0-3.71.79,5,5,0,0,0-.62.28l-.8.44a1.28,1.28,0,0,0-.28.16C3169.92,1336.72,3167.84,1345.28,3171.09,1353.3Z"/><path class="cls-28" d="M3224.61,1306.79,3201,1319.57a.5.5,0,0,1,.27-.12,10.68,10.68,0,0,1,3.46-.71c4.54-.18,9.2,2.27,12.49,6.48a18,18,0,0,1,3,5,19,19,0,0,1,0,14.73,12.36,12.36,0,0,1-2.87,4.1,5,5,0,0,1-1.11.92l22.55-12s1-.53,1.44-.83a12.37,12.37,0,0,0,4.18-5.14,18.73,18.73,0,0,0-.09-14.73,18.2,18.2,0,0,0-3-5.11c-3.29-4.21-8-6.6-12.43-6.41a10.72,10.72,0,0,0-3.73.83C3225,1306.62,3224.81,1306.74,3224.61,1306.79Z"/><path class="cls-9" d="M3200.42,1319.86a2,2,0,0,1,.54-.29c-.14,0-.21.11-.27.11Z"/><path class="cls-29" d="M3177.1,1332.46a9.1,9.1,0,0,1,3.73-.77c4.49-.25,9.08,2.13,12.37,6.34a20.54,20.54,0,0,1,3,5.18,18.54,18.54,0,0,1,.1,14.67,12.72,12.72,0,0,1-4.26,5.2l22.77-12.24a7.85,7.85,0,0,0,1.43-.83,5,5,0,0,0,1.11-.92,11.37,11.37,0,0,0,3.14-4.21,19.06,19.06,0,0,0-.09-14.74,21.76,21.76,0,0,0-2.92-5.1c-3.36-4.22-8-6.6-12.49-6.41a9.86,9.86,0,0,0-3.73.82.5.5,0,0,0-.27.12H3201c-.14,0-.21.11-.27.11l-.27.18Z"/><path class="cls-4" d="M3626.45,1218.45l36.68-6a6,6,0,0,1,5.56,9.74l-13.53,16.2a25.7,25.7,0,0,1-10.32,7.45l-284.46,112.21a33.45,33.45,0,0,1-34.67-6.27h0a9.88,9.88,0,0,1,3-16.52l292.45-115.36A25.1,25.1,0,0,1,3626.45,1218.45Z"/><path class="cls-13" d="M3634.46,1203.36l2.14,6.43,8.11,24.47,36-29.61a1.09,1.09,0,0,0,0-1.74.85.85,0,0,0-.79-.4Z"/><path class="cls-24" d="M3634.46,1203.36l2.14,6.43,9.85,1.19,34.19-8.07a.85.85,0,0,0-.79-.4Z"/><path class="cls-19" d="M3335.79,1322.26l3.2,9,8.25,23.1,293-117.61h0a10,10,0,0,0,2.24-.91,12.08,12.08,0,0,0,4.79-4.65,18.85,18.85,0,0,0,1.56-14.63,20.6,20.6,0,0,0-2.42-5.5,0,0,0,0,1,0,0c-2.83-4.49-7.15-7.37-11.59-7.65a11,11,0,0,0-3.79.37,3.75,3.75,0,0,0-.65.2l-.83.35a1.7,1.7,0,0,0-.3.12l-.23.13Z"/><path class="cls-30" d="M3335.79,1322.26l3.2,9,12.31-1.47,295.15-118.7v0a0,0,0,0,1,0,0c-2.83-4.49-7.15-7.37-11.59-7.65a11,11,0,0,0-3.79.37,3.75,3.75,0,0,0-.65.2l-.83.35a1.7,1.7,0,0,0-.3.12l-.23.13Z"/><path class="cls-27" d="M3327.19,1342.44c2.56,9.11,10.51,14.85,17.79,12.81h0a10.6,10.6,0,0,0,2.25-.91,12.29,12.29,0,0,0,4.78-4.66,18.85,18.85,0,0,0,1.57-14.63c-2.12-7.55-7.95-12.79-14-13.18a10.83,10.83,0,0,0-3.79.37,6,6,0,0,0-.64.2l-.84.35a1.6,1.6,0,0,0-.3.13C3327.89,1325.84,3324.86,1334.11,3327.19,1342.44Z"/><path class="cls-28" d="M3385.61,1302.27l-24.88,10a.55.55,0,0,1,.28-.08,10.82,10.82,0,0,1,3.52-.32c4.54.33,8.89,3.29,11.69,7.85a18,18,0,0,1,2.39,5.35,19,19,0,0,1-1.63,14.63,12.17,12.17,0,0,1-3.32,3.75,4.7,4.7,0,0,1-1.2.79l23.77-9.43s1-.42,1.51-.66a12.44,12.44,0,0,0,4.75-4.64,18.77,18.77,0,0,0,1.56-14.65,18.48,18.48,0,0,0-2.38-5.41c-2.8-4.55-7.16-7.45-11.63-7.77a11,11,0,0,0-3.8.4C3386,1302.14,3385.81,1302.24,3385.61,1302.27Z"/><path class="cls-9" d="M3360.09,1312.53a2.17,2.17,0,0,1,.58-.24c-.14,0-.22.1-.28.09Z"/><path class="cls-29" d="M3335.51,1322.41a8.87,8.87,0,0,1,3.79-.33c4.49.25,8.78,3.13,11.58,7.69a20.89,20.89,0,0,1,2.44,5.49,18.59,18.59,0,0,1-1.56,14.58,12.61,12.61,0,0,1-4.82,4.69l24-9.59a8.07,8.07,0,0,0,1.52-.67,4.7,4.7,0,0,0,1.2-.79,11.35,11.35,0,0,0,3.6-3.83,19,19,0,0,0,1.57-14.65,22,22,0,0,0-2.32-5.4c-2.86-4.57-7.22-7.46-11.69-7.78a9.9,9.9,0,0,0-3.81.4.55.55,0,0,0-.28.08h-.06c-.14,0-.22.1-.28.09l-.3.15Z"/><path class="cls-31" d="M3017.82,637.44c2.39,5.38,0,9.75-5.41,9.75s-11.69-4.37-14.09-9.75,0-9.75,5.41-9.75S3015.42,632.05,3017.82,637.44Z"/><path class="cls-31" d="M3453.79,766.05c2.4,5.38,0,9.75-5.41,9.75s-11.69-4.37-14.09-9.75,0-9.75,5.41-9.75S3451.4,760.66,3453.79,766.05Z"/><path class="cls-31" d="M3290,501.27c2.39,5.39,0,9.75-5.41,9.75s-11.69-4.36-14.09-9.75,0-9.74,5.41-9.74S3287.64,495.89,3290,501.27Z"/><path class="cls-31" d="M2453.52,514.59c2.4,5.39,0,9.75-5.41,9.75s-11.69-4.36-14.09-9.75,0-9.75,5.41-9.75S2451.13,509.21,2453.52,514.59Z"/><line class="cls-32" x1="2911.26" y1="609.87" x2="2911.26" y2="627.69"/><line class="cls-32" x1="2919.62" y1="623.04" x2="2902.91" y2="613.43"/><line class="cls-32" x1="3109.74" y1="397.42" x2="3109.74" y2="415.23"/><line class="cls-32" x1="3118.1" y1="410.59" x2="3101.39" y2="400.97"/><line class="cls-32" x1="2560.95" y1="382.14" x2="2560.95" y2="399.96"/><line class="cls-32" x1="2569.3" y1="395.31" x2="2552.59" y2="385.7"/><line class="cls-32" x1="3607.06" y1="678.83" x2="3607.06" y2="696.64"/><line class="cls-32" x1="3615.41" y1="692" x2="3598.7" y2="682.38"/><path class="cls-33" d="M2688.94,736.37s-3.27,71.5-8.42,88.86,3.36,44.77-63.93,89l22.09,27.54s80.39-35.86,95-101c6.76-30.17,20.9-105.7,20.9-105.7"/><path class="cls-4" d="M2699.51,1384c-5.44,8.19-16.55,17-36.28,25.42s-34.34,27.26-49.31,32.56c-17,6-45.75-1.16-65-21-7-7.17.86-10.47.71-17.2a30.17,30.17,0,0,1,3.68-14.71c4.51-8.28,17.7-13,33.64-18.14s22.44-9.73,33.65-18.83,15-20.8,19-26.06c2-2.65,17.77,3.66,22.73,13.5,2.45,5,1.65,6.7.6,8.25a4.89,4.89,0,0,0,.13,5.26,5.58,5.58,0,0,0,3.53,2.57c20.8,4.23,17.94-13,17.94-13C2699.13,1351.87,2710.37,1367.62,2699.51,1384Z"/><path class="cls-4" d="M2644.67,1296.41c-5.45,8.19-16.55,17-36.29,25.41s-34.34,27.26-49.3,32.57c-17,6-45.76-1.16-65-21-7-7.17.86-10.48.72-17.2a30,30,0,0,1,3.67-14.71c4.52-8.28,17.7-13,33.65-18.14s22.43-9.74,33.65-18.83,15-20.8,18.95-26.06c2-2.65,17.77,3.65,22.74,13.49,2.45,5,1.64,6.71.59,8.26a4.87,4.87,0,0,0,.14,5.26,5.57,5.57,0,0,0,3.53,2.57c20.8,4.22,17.93-13,17.93-13C2644.29,1264.31,2655.53,1280.06,2644.67,1296.41Z"/><path class="cls-33" d="M2723.46,948.86c-6.61,1.18-114.47,46.41-130.2,77.13-6,11.71-6.92,63.38-11.86,103.06-3.14,25.23-2.8,80.26-14.21,104.2a61.51,61.51,0,0,1-6.31,10.09c12.86,22.52,44.27,18.21,65.86,4.25,2.49-7.86-.87-16.67-.33-23.54,1.49-3.52,43.17-104.57,33.44-143.32,18-1.5,104.37-36.68,110.79-41.58S2748.47,944.39,2723.46,948.86Z"/><path class="cls-34" d="M2633.23,1282.31s2.31,2.73,1.91,5.85-4.25,8-12.5,12-14.58,5.46-23.09,12.39-24.44,21.89-33.54,29.25-21.91,10.35-29,10.77-18.23-.9-32.81-7.61a34.24,34.24,0,0,1-18.6-22.09c-1.46-5.8-1-15.23-1-15.23"/><path class="cls-9" d="M2632.15,1287.89c-7.16,6.57-11.94,7.23-31.16,17.24s-38.1,36.6-53.76,40.23-36.06-6-51.32-15.5c-8.29-5.17-11.46-12.46-11.95-19.41a32.55,32.55,0,0,1,2.91-15.47c4.08-8.87,17-14.63,32.58-21s21.15-12.71,31.86-22.86,13.91-22.52,17.54-28.22c1.88-2.88,17.88,2.61,23.33,12.47,2.69,5,2,6.83,1,8.5a5.24,5.24,0,0,0,.4,5.44,5.48,5.48,0,0,0,3.65,2.43c20.93,3,29.56-20.4,29.56-20.4C2641.86,1240,2639.31,1281.33,2632.15,1287.89Z"/><path class="cls-35" d="M2632.15,1287.89c-7.16,6.57-11.94,7.23-31.16,17.24s-38.1,36.6-53.76,40.23-33,0-50.23-11.16c-8.21-5.29-12.55-16.8-13-23.75,7.05,9.2,14.32,21.88,36.88,22.6,18.1.58,33.18,2,46.74-15.48s22.44-25.94,37.39-30.94,21.79-12.55,19.6-20.42-7.74-13.38-18.59-11.71-12.39-5.18-12.39-5.18a5.48,5.48,0,0,0,3.65,2.43c20.93,3,29.56-20.4,29.56-20.4C2638.68,1239.61,2639.31,1281.33,2632.15,1287.89Z"/><path class="cls-36" d="M2778.38,1039.5c-6.61,1.18-114.48,46.4-130.21,77.12-6,11.71-6.92,63.38-11.86,103.07-3.14,25.23-2.79,80.25-14.21,104.19a61.51,61.51,0,0,1-6.31,10.09c12.87,22.52,44.28,18.21,65.87,4.25,2.48-7.85-.88-16.67-.34-23.54,1.5-3.52,43.18-104.57,33.44-143.32,18-1.49,104.38-36.67,110.8-41.58S2803.39,1035,2778.38,1039.5Z"/><path class="cls-37" d="M2797.25,863.78l-125.83,88.51s46,16.33,58.73,45c14.27,32.09,13.27,61.43,13.27,61.43l122.23-37.83S2870.61,887.77,2797.25,863.78Z"/><path class="cls-37" d="M2961.29,888.7s37.52,101.66-27.82,175.85c-38.94,44.22-123.47,97.39-123.47,97.39s-25.82-18.85-51.88-58.43c-13.86-21-28.84-43.66-28.84-43.66L2847.49,937Z"/><path class="cls-38" d="M2675.66,764.27a121.14,121.14,0,0,0,42.45,17.86,236.68,236.68,0,0,0,44.11,4.9s35.87-112.4,13.12-130.51-49-19.08-67.79,8.75C2689.13,692.59,2675.66,764.27,2675.66,764.27Z"/><path class="cls-20" d="M2743.23,905c34.86,27.82,86.46,63.7,126.44,53.36,36.83-9.53,71-40.68,91.62-69.65-12.07-51.33-30.95-178-69.38-226.54-39.87-50.33-71.77-55.85-71.77-55.85s-30.46-30.66-81.38,34.61-26.89,130.42-9.19,180.79C2750.65,881.7,2736.14,872.3,2743.23,905Z"/><path class="cls-39" d="M2729.28,1059.85c3.07-2.94,6.21-5.8,9.32-8.71l9.43-8.58c6.3-5.71,12.69-11.32,19-17s12.8-11.19,19.26-16.71l9.71-8.26c3.28-2.71,6.52-5.46,9.83-8.13-3.08,2.94-6.22,5.8-9.32,8.71l-9.43,8.58c-6.3,5.71-12.69,11.32-19,17s-12.8,11.18-19.26,16.7l-9.72,8.26C2735.82,1054.42,2732.58,1057.17,2729.28,1059.85Z"/><path class="cls-34" d="M2688.08,1369.87s2.31,2.74,1.91,5.85-4.25,8-12.51,12-14.58,5.46-23.08,12.39-24.44,21.89-33.54,29.25-21.91,10.35-29,10.78-18.22-.9-32.81-7.61a34.33,34.33,0,0,1-18.6-22.09c-1.46-5.81-1-15.24-1-15.24"/><path class="cls-9" d="M2687,1375.46c-7.16,6.56-11.93,7.22-31.15,17.24s-38.1,36.59-53.76,40.22-36.07-6-51.33-15.5c-8.29-5.16-11.45-12.46-11.94-19.41a32.55,32.55,0,0,1,2.91-15.47c4.07-8.86,17-14.62,32.58-21s21.15-12.71,31.85-22.86,13.92-22.52,17.55-28.22c1.88-2.88,17.88,2.61,23.33,12.47,2.69,5,2,6.83,1,8.51a5.2,5.2,0,0,0,.4,5.43,5.45,5.45,0,0,0,3.64,2.43c20.93,3,29.56-20.4,29.56-20.4C2696.7,1327.59,2694.15,1368.9,2687,1375.46Z"/><path class="cls-35" d="M2687,1375.46c-7.16,6.56-11.93,7.22-31.15,17.24s-38.1,36.59-53.76,40.22-33,0-50.24-11.16c-8.21-5.29-12.54-16.8-13-23.75,7.05,9.21,14.31,21.88,36.87,22.61,18.1.58,33.18,2,46.75-15.49s22.43-25.94,37.39-30.93,21.78-12.55,19.6-20.43-7.74-13.37-18.59-11.7-12.39-5.19-12.39-5.19a5.45,5.45,0,0,0,3.64,2.43c20.93,3,29.56-20.4,29.56-20.4C2693.52,1327.17,2694.15,1368.9,2687,1375.46Z"/><path class="cls-40" d="M2846.05,575.61l-1.59,46.61s-48.86,32.78-74,26.93c-10.82-2.52-16.06-16.66-13.11-36.26l23.2-3.87Z"/><path class="cls-41" d="M2711.07,502.19s-14.27,26.76-5.15,78.2c5.07,28.61,21.22,47.65,35.39,54.47s27.09,7.95,51.79-6.76,38.79-39.57,38.79-39.57,3.37,2.38,12.34-7.07c14.05-14.78,16.9-22.32,17.61-43s-3.58-46.93-18.77-74.52-65-20.66-87.8-9.92S2716.13,479.2,2711.07,502.19Z"/><path class="cls-42" d="M2705.84,511.47c23.21,44.52,76.84,16.59,76.84,16.59,3.91,19.14,17.12,21.33,23.38,25s6.17,16,6.17,16l5.8.2s1.67-12.25,4.89-21.43,20.7-15.64,28.86-1.84c7.37,12.37-2,25.58-7.52,35.43-2.2,15.86.8,22.6.8,22.6s9.69-9,16.63-27.73,11.35-46.62,1.87-89.6a46.31,46.31,0,0,0-4.64-12.44c-17.8-32.56-71.47-40.61-92.85-34.13-18.45,5.6-53.79,14.19-63.25,43.08C2700,491.77,2700.55,501.24,2705.84,511.47Z"/><path class="cls-43" d="M2705.84,511.47c23.21,44.52,76.84,16.59,76.84,16.59,3.91,19.14,17.12,21.33,23.38,25s6.17,16,6.17,16l5.8.2s1.67-12.25,4.89-21.43,20.7-15.64,28.86-1.84c7.37,12.37-2,25.58-7.52,35.43-2.2,15.86.8,22.6.8,22.6s9.69-9,16.63-27.73,11.35-46.62,1.87-89.6a46.31,46.31,0,0,0-4.64-12.44c-10.66,8.52-39.64,19.93-71.26,32-39.26,14.92-60.21,11.69-69.63,3.07s-14.24-15.51-15.13-26l-.08-.09C2700,491.77,2700.55,501.24,2705.84,511.47Z"/><path class="cls-44" d="M2616.59,1003.06s2.6,7.73,15,9.32l80.36,48.87,162.07-63Z"/><polygon class="cls-45" points="2626.53 989.04 2613.97 995.91 2620.57 1001.51 2634.98 1006.52 2648.3 998.6 2626.53 989.04"/><polygon class="cls-46" points="2781.9 934.8 2533 950.29 2616.81 999.22 2781.9 939.61 2781.9 934.8"/><polygon class="cls-47" points="2695.76 885.55 2530.73 944.68 2614.61 993.16 2779.63 934 2695.76 885.55"/><path class="cls-48" d="M2530.73,944.68v4.81l80,46.18,9.54,5.5-6.27-3.61c-1.91-2.13-1.46-3.95-3-6.5Z"/><polygon class="cls-46" points="2880.73 991.5 2634.98 1008.25 2715.7 1055.46 2880.73 996.31 2880.73 991.5"/><polygon class="cls-47" points="2801.63 945.9 2635.98 1004.64 2715.7 1050.65 2880.73 991.5 2801.63 945.9"/><polygon class="cls-48" points="2715.7 1055.46 2715.7 1050.65 2635.98 1004.64 2633.02 1007.67 2715.7 1055.46"/><polygon class="cls-49" points="2633.68 992.96 2788.69 938.86 2786.18 930.18 2699.91 874.5 2545.28 932.21 2633.68 992.96"/><polygon class="cls-50" points="2871.2 972 2634.53 997.84 2716.57 1045.31 2871.2 992.14 2871.2 972"/><path class="cls-49" d="M2637.17,987.14l148.25-49.2c1.63-.94,3.13-2.05,4.69-3.09,1.89-1.27,8.19-2.08,15.32-1.5,29.92,2.41,65.78,38.65,65.78,38.65l-154.63,53.17Z"/><path class="cls-51" d="M2637.16,984.61l148.26-49.2c1.62-.93,3.13-2,4.68-3.08,1.89-1.27,8.19-2.08,15.33-1.5,29.92,2.41,65.77,38.65,65.77,38.65l-154.63,53.16Z"/><path class="cls-52" d="M2631.55,996v-3.4a27.44,27.44,0,0,0-7.59-18.86c-26.58-28.06-78.68-41.56-78.68-41.56v14Z"/><path class="cls-53" d="M2699.91,874.5l-154.63,57.71s77.69,7.33,86.27,51.12l154.63-53.15C2777.6,886.4,2699.91,874.5,2699.91,874.5Z"/><path class="cls-49" d="M2631.55,996l3,1.74,0,.08.51.2,81.55,47.26v-22.67s-33-33.29-62.06-38.19c-1.24-.2-2.48-.36-3.73-.47a52.13,52.13,0,0,0-9.5.07,5.73,5.73,0,0,0-1.24,0,8.81,8.81,0,0,0-6.16,2.81,8.6,8.6,0,0,0-2.3,5,4.53,4.53,0,0,0,0,.75Z"/><path class="cls-52" d="M2631.55,996l3,1.74,0,.08.51.2,81.55,47.26v-20.14s-38.26-33.9-62.06-39.41c-1.28-.3-17.36-3.65-20.63.21a11.2,11.2,0,0,0-2.3,5.91,4.53,4.53,0,0,0,0,.75Z"/><path class="cls-48" d="M2611,991.06a46.9,46.9,0,0,0,1.83,6c5.35,10.5,21.49,11.17,21.49,11.17l2.55,1.59.41-1.65-1.27-3.52s-10.92-.44-18-6.69c-1.71-1.53-1.8-2.24-3.35-4.79Z"/><path id="_Path_" data-name="&lt;Path&gt;" class="cls-36" d="M2785.91,944.67c10.48-3.87,30.56,15.61,9,38.19-5,5.26-7.39,9.83-14.39,12.65-3.44,1.39-8.36,4.34-12.88,5.36-9.47,5.61-16.16,7.39-21.86,10-7.5,3.45-4.92,5.52-21.63-2.43s-7.2-13-7.2-13l-3.63-4.24c-3.64-4.25.93-6.59.93-6.59l28.08-19.17a20.31,20.31,0,0,1,2.17-4.35c-7.59-.44-23.73-2-24.77-7-1.36-6.56,19.9-2.5,28.64-4.06,3.11-.56,8-1.19,12.92-1.76a19.86,19.86,0,0,1,2.89-.79C2771.61,946.32,2778.54,947.32,2785.91,944.67Z"/><path class="cls-36" d="M2853.48,770.51s13.79,58.93,8.43,76.23S2846.8,904.07,2779,947.46l21.76,27.81s98.75-47.4,114.13-112.34c7.13-30.08,4.25-92.92,4.25-92.92"/><path class="cls-38" d="M2839.3,776.36s19.12,7.23,38.35,7.49S2932,769.19,2932,769.19s3.87-60.23-17-96.13-47.67-39.17-69.57-13S2839.3,776.36,2839.3,776.36Z"/><path class="cls-54" d="M3230.9,1061.92a6.06,6.06,0,0,1-2,5.64l-163.94,90.13a5.91,5.91,0,0,1-6.29,1.07l-27.79-11.08-8.31-3.33-84.22-33.59-4.07-1.68-5.17-2a5.82,5.82,0,0,1-3.66-4.36,6,6,0,0,1,1.91-5.93L3090.85,1007a6.26,6.26,0,0,1,6.3-1.07l11,4.37,4.06,1.61,84.5,33.37,8.13,3.21,22.26,8.78A6,6,0,0,1,3230.9,1061.92Z"/><path class="cls-55" d="M2934.18,1079.36,3089,997.21a5.72,5.72,0,0,1,5.86-1l121.52,48a5.73,5.73,0,0,1,1.66,9.65l-155.21,82.52a5.73,5.73,0,0,1-5.88,1L2935.82,1089A5.73,5.73,0,0,1,2934.18,1079.36Z"/><path class="cls-56" d="M3210.3,1049.05a2.71,2.71,0,0,0-.78,2.2l-112.92-44.58a5.72,5.72,0,0,0-5.87,1l-150,78c-3.66-.36-8.43-.73-8.43-.73l1.83,10.76.16,0a5.56,5.56,0,0,0,3.27,3.78l121.08,48.35a5.75,5.75,0,0,0,5.89-1l155.2-82.52a5.48,5.48,0,0,0,1.8-4.09l.28,0-2-11.66S3211.7,1048,3210.3,1049.05Z"/><path class="cls-57" d="M3219.9,1048.53l2,11.63-.29,0a5.37,5.37,0,0,1-1.82,4.08l-155.19,82.53a5.87,5.87,0,0,1-5.89,1l-25.91-10.38-7.92-3.16-87.29-34.82a5.44,5.44,0,0,1-3.23-3.81l-.14,0-1.83-10.77s4.79.37,8.39.72l150-78a5.84,5.84,0,0,1,5.88-1l83.58,33,7.6,3,21.69,8.58a2.86,2.86,0,0,1,.81-2.21C3211.68,1048,3219.9,1048.53,3219.9,1048.53Z"/><path class="cls-58" d="M3219.9,1048.53a5.68,5.68,0,0,1-1.92,5.28l-155.19,82.53a5.53,5.53,0,0,1-5.89,1l-26-10.36-7.76-3.11-78.73-31.4-3.82-1.57-4.83-1.91a5.45,5.45,0,0,1-3.42-4.07,5.62,5.62,0,0,1,1.79-5.55L3089,997.19a5.84,5.84,0,0,1,5.88-1l10.3,4.09,3.8,1.5,79,31.2,7.6,3,20.81,8.21A5.67,5.67,0,0,1,3219.9,1048.53Z"/><polygon class="cls-28" points="3100.1 1020.74 3079.92 1038.3 3129.99 1058.22 3150.24 1040.6 3100.1 1020.74"/><path class="cls-55" d="M2928,1046.82l154.78-82.14a5.7,5.7,0,0,1,5.86-1l121.52,48a5.73,5.73,0,0,1,1.66,9.65l-155.21,82.52a5.73,5.73,0,0,1-5.88,1l-121.09-48.35A5.74,5.74,0,0,1,2928,1046.82Z"/><path class="cls-56" d="M3204.16,1016.52a2.71,2.71,0,0,0-.78,2.2l-112.92-44.58a5.72,5.72,0,0,0-5.87,1l-150,78c-3.65-.36-8.43-.73-8.43-.73l1.83,10.76.16,0a5.56,5.56,0,0,0,3.27,3.78l121.08,48.35a5.75,5.75,0,0,0,5.89-1l155.2-82.52a5.48,5.48,0,0,0,1.8-4.09l.29,0-2-11.66S3205.56,1015.51,3204.16,1016.52Z"/><path class="cls-57" d="M3213.76,1016l2,11.63-.29,0a5.35,5.35,0,0,1-1.82,4.07l-155.19,82.54a5.84,5.84,0,0,1-5.89,1l-25.91-10.37-7.92-3.16-87.29-34.82a5.46,5.46,0,0,1-3.23-3.81l-.14,0-1.83-10.77s4.79.37,8.39.72l150-78a5.84,5.84,0,0,1,5.88-1l83.59,33,7.59,3,21.69,8.58a2.86,2.86,0,0,1,.81-2.21C3205.54,1015.48,3213.76,1016,3213.76,1016Z"/><path class="cls-59" d="M3213.76,1016a5.66,5.66,0,0,1-1.92,5.27l-155.19,82.53a5.52,5.52,0,0,1-5.89,1l-26-10.36-7.76-3.11-78.73-31.4-3.82-1.57-4.82-1.91a5.44,5.44,0,0,1-3.43-4.07,5.62,5.62,0,0,1,1.79-5.55l154.82-82.17a5.84,5.84,0,0,1,5.88-1l10.3,4.09,3.8,1.5,79,31.2,7.6,3,20.81,8.21A5.67,5.67,0,0,1,3213.76,1016Z"/><polygon class="cls-60" points="3024.74 1094.22 3024.78 1094.44 3026.63 1104.91 3018.71 1101.75 3016.89 1091.42 3017.02 1091.33 3174.07 1007.15 3184.5 1001.31 3192.1 1004.31 3181.67 1010.15 3024.74 1094.22"/><polygon class="cls-28" points="3106.36 985.4 3079.98 999.79 3130.05 1019.71 3156.5 1005.26 3106.36 985.4"/><path class="cls-61" d="M3325.13,414h-30.57s-14.28-10.5.05-11.93l14.34-1.44Z"/><polygon class="cls-61" points="3297.48 161.03 3265.72 161.03 3265.72 165.13 3283.18 169.22 3299.28 167.85 3297.48 161.03"/><ellipse class="cls-61" cx="3309.42" cy="287.54" rx="89.1" ry="127.97" transform="translate(13.66 703.39) rotate(-12.16)"/><ellipse class="cls-62" cx="3283.04" cy="287.54" rx="89.11" ry="127.97" transform="translate(13.07 697.83) rotate(-12.16)"/><ellipse class="cls-9" cx="3283.04" cy="287.54" rx="68.6" ry="98.53" transform="translate(13.07 697.83) rotate(-12.16)"/><path class="cls-61" d="M3286.28,292.8c1,5-1.1,9.59-4.62,10.18s-7.17-3-8.13-8,1.1-9.6,4.62-10.19S3285.32,287.76,3286.28,292.8Z"/><path class="cls-61" d="M3279.91,297.14a3.27,3.27,0,0,1-3.28-3.27V237.3a3.28,3.28,0,1,1,6.55,0v56.57A3.26,3.26,0,0,1,3279.91,297.14Z"/><path class="cls-61" d="M3279.9,297.14a3.28,3.28,0,0,1-.54-6.51l38.75-6.48a3.24,3.24,0,0,1,3.77,2.68,3.28,3.28,0,0,1-2.68,3.78l-38.75,6.49A3.39,3.39,0,0,1,3279.9,297.14Z"/><path class="cls-54" d="M3124.56,739.94a3.45,3.45,0,0,0-5.18-3l-81.13,37.17a3.8,3.8,0,0,0-1.8,3.92L3053,874.27a3.81,3.81,0,0,1-1.7,3.86L3001,910.41a3.81,3.81,0,0,0,.19,6.54l41.65,23.27a9.64,9.64,0,0,0,9.61-.1c17.59-10.33,78.8-46.31,98.68-58a3.8,3.8,0,0,0-.35-6.72l-8.77-4.06a3.81,3.81,0,0,1-2.21-3.65Z"/><path class="cls-58" d="M3104.34,693.07l-91.21,53.39,31.19,17.66,65.29-54-.1-14.15A3.43,3.43,0,0,0,3104.34,693.07Z"/><polygon class="cls-28" points="3013.15 751.37 3103.84 698.27 3136.76 716.96 3046.09 770.03 3013.15 751.37"/><path class="cls-63" d="M3139.21,711.26a3.75,3.75,0,0,0-4-.36l-90.92,53.22-31.19-17.66,91.21-53.39a3.37,3.37,0,0,1,3-.22h0s-3.2-1.55-4.47-2.28a3.7,3.7,0,0,0-3.84-.25l-96,56.17,1.14,161.88,36-21,.29,41.64,98.12-57.45a5.94,5.94,0,0,0,2.95-5.17l2-152.72S3140.61,712.13,3139.21,711.26Z"/><polygon class="cls-59" points="3044.36 769.94 3003.04 746.52 3004.18 908.4 3045.51 931.82 3044.36 769.94"/><path class="cls-58" d="M3140.32,713.76l-96,56.18,1.15,161.88,98.12-57.45a5.94,5.94,0,0,0,2.94-5.17l-1.07-152.49A3.45,3.45,0,0,0,3140.32,713.76Z"/><polygon class="cls-64" points="3131.49 739.94 3085.8 766.69 3086.31 795.41 3132 768.66 3131.49 739.94"/><path class="cls-54" d="M3330.36,922.33c-22.28.65-40,11.77-39.63,24.84,0,0-.07,5,0,7.22a13.9,13.9,0,0,0,.55,3.52,19.52,19.52,0,0,0,6.84,9.59l-8.29,5.17a6.23,6.23,0,0,0-3.37-.65,5.13,5.13,0,0,0-1.71.47,2.64,2.64,0,0,0-.29.15l-.35.22-.13.09-.09.07-46.23,28.58h0l-.28.15-.36.23a.57.57,0,0,0-.13.08c-2.58,1.83-3.31,5.89-1.56,9.53,1.91,4,6,6,9.22,4.47h0a5.18,5.18,0,0,0,1-.6h0l46.12-28.5h0a4.7,4.7,0,0,0,1-.6,5.69,5.69,0,0,0,1.83-2.52,8,8,0,0,0,.44-3.52l11.29-7h0a2.58,2.58,0,0,0,.55-.35c.1-.07.13-.21.22-.29a60.2,60.2,0,0,0,24.81,4.23c20.23-.59,36.72-9.81,39.29-21.29.26-1.16.34-10.77.34-10.77C3371,931.73,3352.64,921.67,3330.36,922.33Z"/><path class="cls-65" d="M3285.55,949.88a13.9,13.9,0,0,0,.55,3.52c3.24,11.3,20.24,19.54,40.47,19s36.72-9.82,39.29-21.29c.26-1.17.34-10.77.34-10.77s-10.59-21.09-41-20.66c-18.41.25-39.63,23-39.63,23S3285.48,947.61,3285.55,949.88Zm6.4-.19a13.3,13.3,0,0,1,2.65-8.12c5.06-7.14,16.83-12.36,30.69-12.77s25.92,4.12,31.39,10.94a13.32,13.32,0,0,1,3.12,8c.32,11-14.6,15.25-33.34,15.8S3292.28,960.68,3292,949.69Z"/><path class="cls-66" d="M3290.4,942.66c.33,11.21,16.42,19.84,35.93,19.26s35.07-10.13,34.74-21.34-16.42-19.84-35.93-19.26S3290.07,931.44,3290.4,942.66Z"/><path class="cls-67" d="M3305.41,925.24c35.2.78,45.79,18.1,48.73,27.9,4.48-3.55,7.07-7.92,6.94-12.57-.34-11.2-16.33-19.43-35.84-18.86C3318.07,921.92,3310.92,923,3305.41,925.24Z"/><path class="cls-67" d="M3293.89,943.09c.29,9.92,14.53,17.56,31.81,17s31-9,30.74-18.9c0-.29,0-.57-.06-.86-1,9.32-14.22,17-30.68,17.5-16.76.5-30.66-6.68-31.75-16.16A9,9,0,0,0,3293.89,943.09Z"/><path class="cls-68" d="M3289.11,935.67l9.15-9.51,26.41-6.53,26.74,5,9.69,9,2.53,5.58-3.83,1.34s-4.51-18.16-35-17.26-33.95,19.29-33.95,19.29l-3.9-1.11Z"/><path class="cls-69" d="M3285.55,942.66a14,14,0,0,0,.55,3.52c3.24,11.3,20.24,19.54,40.47,18.94s36.72-9.82,39.29-21.29a14,14,0,0,0,.34-3.54c-.38-13.07-18.74-23.13-41-22.47S3285.16,929.59,3285.55,942.66Zm6.4-.19a13.3,13.3,0,0,1,2.65-8.12c5.06-7.14,16.83-12.37,30.69-12.77s25.92,4.11,31.39,10.94a13.27,13.27,0,0,1,3.12,8c.32,11-14.6,20.34-33.34,20.89S3292.28,953.45,3292,942.47Z"/><path class="cls-70" d="M3285.55,942.66a14,14,0,0,0,.55,3.52c3.24,11.3,20.24,19.54,40.47,18.94s36.72-9.82,39.29-21.29a14,14,0,0,0,.34-3.54c-.38-13.07-18.74-23.13-41-22.47S3285.16,929.59,3285.55,942.66Zm6.4-.19a13.3,13.3,0,0,1,2.65-8.12c5.06-7.14,16.83-12.37,30.69-12.77s25.92,4.11,31.39,10.94a13.27,13.27,0,0,1,3.12,8c.32,11-14.6,20.34-33.34,20.89S3292.28,953.45,3292,942.47Z"/><path class="cls-70" d="M3280.71,970.62l.77,1.15h0l3.46,5.12.88,1.31,15.16-9.45h0a2.58,2.58,0,0,0,.55-.35,3.23,3.23,0,0,0,1.05-1.45,4,4,0,0,0,.23-.93h0a5.3,5.3,0,0,0-.5-3,5.11,5.11,0,0,0-2.6-2.57,3.56,3.56,0,0,0-1.72-.27,2.81,2.81,0,0,0-1,.27l-.16.09-.21.13-.07.05Z"/><path class="cls-9" d="M3280.71,970.62l.77,1.15h0l18.24-11.32a3.56,3.56,0,0,0-1.72-.27,2.81,2.81,0,0,0-1,.27l-.16.09-.21.13-.07.05Z"/><path class="cls-71" d="M3285,976.89l.88,1.31,15.16-9.45h0a2.58,2.58,0,0,0,.55-.35,3.23,3.23,0,0,0,1.05-1.45,4,4,0,0,0,.23-.93Z"/><path class="cls-72" d="M3232.47,997.1l2.2,3.88,5.66,10,46.13-28.51h0a4.7,4.7,0,0,0,1-.6,5.69,5.69,0,0,0,1.83-2.52,8.82,8.82,0,0,0-.46-6.87,9.4,9.4,0,0,0-1.56-2.33h0a7.21,7.21,0,0,0-6-2.59,4.92,4.92,0,0,0-1.71.48,1.55,1.55,0,0,0-.29.14l-.35.22-.13.09-.09.07Z"/><path class="cls-73" d="M3232.47,997.1l2.2,3.88,5.55-1.67,47-29.19h0a7.21,7.21,0,0,0-6-2.59,4.92,4.92,0,0,0-1.71.48,1.55,1.55,0,0,0-.29.14l-.35.22-.13.09-.09.07Z"/><path class="cls-74" d="M3230.14,1007.09c1.91,4,6,6,9.22,4.46h0a5.18,5.18,0,0,0,1-.6,5.78,5.78,0,0,0,1.83-2.53,8.79,8.79,0,0,0-.46-6.86c-1.58-3.31-4.69-5.25-7.52-4.94a4.92,4.92,0,0,0-1.71.48l-.28.14-.36.23a.57.57,0,0,0-.13.08C3229.12,999.38,3228.39,1003.44,3230.14,1007.09Z"/><ellipse class="cls-54" cx="3200.36" cy="954.09" rx="30.68" ry="17.41"/><ellipse class="cls-19" cx="3200.36" cy="947.89" rx="30.68" ry="17.41"/><polygon class="cls-19" points="3242.65 856.93 3231.04 947.88 3169.68 949.26 3158.06 856.93 3242.65 856.93"/><ellipse class="cls-20" cx="3200.36" cy="856.93" rx="42.29" ry="24.01"/><path class="cls-75" d="M3200.36,875.45c-21.69,0-36.81-9.76-36.81-18.52s15.12-18.51,36.81-18.51,36.81,9.75,36.81,18.51S3222.05,875.45,3200.36,875.45Z"/><path class="cls-76" d="M3200.36,875.45c-21.69,0-36.81-9.76-36.81-18.52s15.12-18.51,36.81-18.51,36.81,9.75,36.81,18.51S3222.05,875.45,3200.36,875.45Z"/><g class="cls-77"><path class="cls-78" d="M3215.57,848.52h0a1.39,1.39,0,0,1-1.1-1.64L3217,833.7a1.41,1.41,0,0,1,1.64-1.11h0a1.39,1.39,0,0,1,1.1,1.64l-2.55,13.19A1.4,1.4,0,0,1,3215.57,848.52Z"/><path class="cls-79" d="M3212.2,918c-.25,1.28-2.48,1.47-5,.43s-4.37-2.91-4.13-4.19,2.48-1.46,5-.42S3212.44,916.71,3212.2,918Z"/><polygon class="cls-62" points="3222.03 814.22 3203.07 914.23 3212.2 917.98 3231.16 817.98 3222.03 814.22"/><path class="cls-80" d="M3231.16,818c-.24,1.28-2.48,1.47-5,.43s-4.37-2.91-4.12-4.19,2.47-1.46,5-.42S3231.4,816.71,3231.16,818Z"/><path class="cls-15" d="M3208,792.55l-.07,3.19,0,1.3-.11,4.38,0,1.3-.11,4.38,0,1.3-.09,4.25,0,1.3-.11,4.3,0,1.3-.09,4.38,0,1.28-.11,4.38,0,1.3-.09,4.3,0,1.28-.11,4.33,0,1.29-.11,4.33,0,1.28-.09,4.41,0,1.29-.11,4.39,0,1.27-.09,4.35,0,1.28-.11,4.4,0,1.28-.09,4.33,0,1.3-.11,4.38,0,1.27-.44,17.91c-.1,4.1-3,7-5.91,5.73l-9.49-4.08c-2-.86-3.26-3.38-3.17-6.18l3.22-105c.11-3.72,2.59-6.47,5.27-5.86l8.9,2C3206.42,786.72,3208,789.42,3208,792.55Z"/><path class="cls-9" d="M3207.89,795.74l0,1.3a.08.08,0,0,1-.07,0l-4.05-1a.73.73,0,0,1-.37-.77c.06-.33.3-.58.56-.48Z"/><path class="cls-9" d="M3207.74,801.42l0,1.3a.1.1,0,0,1-.09,0l-4-1.07a.62.62,0,0,1-.38-.74c.06-.33.3-.58.54-.51Z"/><path class="cls-9" d="M3207.61,807.1l0,1.3s-.06,0-.09,0l-4-1.07c-.26,0-.43-.41-.38-.74s.28-.58.54-.51Z"/><path class="cls-9" d="M3207.48,812.65l0,1.3s-.06,0-.07,0l-4-1.07a.62.62,0,0,1-.38-.74c.06-.35.28-.58.54-.5Z"/><path class="cls-9" d="M3207.33,818.25l0,1.3a.11.11,0,0,1-.07,0l-4-1.07c-.25-.05-.41-.38-.38-.74s.3-.59.56-.51Z"/><path class="cls-9" d="M3207.2,823.93l0,1.28h-.09l-4-1.07a.72.72,0,0,1-.38-.77c.06-.33.3-.58.56-.48Z"/><path class="cls-9" d="M3207.05,829.59l0,1.3s0,0-.05,0l-4-1.07c-.25,0-.41-.38-.38-.74s.3-.58.56-.51Z"/><path class="cls-9" d="M3206.92,835.19l0,1.28h-.09l-4-1.07a.65.65,0,0,1-.37-.74c0-.36.29-.61.54-.51Z"/><path class="cls-9" d="M3206.77,840.8l0,1.29a.11.11,0,0,1-.07,0l-4-1.07a.62.62,0,0,1-.38-.74c.06-.36.28-.58.54-.51Z"/><path class="cls-9" d="M3206.64,846.42l0,1.28h-.07l-4-1.07a.66.66,0,0,1-.38-.74c.06-.36.3-.61.54-.51Z"/><path class="cls-9" d="M3206.51,852.11l0,1.29a.16.16,0,0,1-.09,0l-4-1.07c-.24,0-.41-.38-.37-.74s.28-.59.55-.51Z"/><path class="cls-9" d="M3206.36,857.79l0,1.27h0l-.07,0-4-1.07a.62.62,0,0,1-.37-.73c0-.36.28-.59.54-.51Z"/><path class="cls-9" d="M3206.23,863.41l0,1.28h0a.13.13,0,0,1-.1,0l-4-1.07c-.26-.05-.41-.38-.37-.74s.3-.58.54-.51Z"/><path class="cls-9" d="M3206.08,869.09l0,1.28H3206l-4-1.07a.71.71,0,0,1-.38-.74c.06-.36.28-.59.56-.51Z"/><path class="cls-9" d="M3206,874.7l0,1.3s0,0,0,0l-4-1.07a.62.62,0,0,1-.38-.74c0-.33.28-.58.54-.51Z"/><path class="cls-9" d="M3205.8,880.38l0,1.27h-.09l-4-1.07a.63.63,0,0,1-.37-.74c0-.35.29-.58.54-.51Z"/></g></g></g></svg>